<svg width="180" height="60" viewBox="0 0 180 60" fill="none" xmlns="http://www.w3.org/2000/svg">
<g clip-path="url(#clip0_62_460)">
<g clip-path="url(#clip1_62_460)">
<g clip-path="url(#clip2_62_460)">
<g clip-path="url(#clip3_62_460)">
<path d="M4.45044 20.2706V19.3038H15.0526V20.2706H4.45044ZM8.18859 32.2584V22.3974H4.45044V21.4307H15.0526V22.3974H11.2822V32.2584H10.3155V22.3974H9.15535V32.2584H8.18859Z" fill="#F5F5F5"/>
<path d="M18.1796 32.2584V19.3038H19.1463V24.2343H24.1735V19.3038H25.1403V32.2584H24.1735V27.3279H19.1463V32.2584H18.1796ZM16.0527 32.2584V19.3038H17.0194V32.2584H16.0527ZM26.3004 32.2584V19.3038H27.2671V32.2584H26.3004ZM19.1463 26.3612H24.1735V25.2011H19.1463V26.3612Z" fill="#F5F5F5"/>
<path d="M30.394 32.2584V19.3038H38.0959V20.2706H31.3608V21.4307H38.0959V22.3974H31.3608V24.2343H37.0647V25.2011H31.3608V26.3612H37.0647V27.3279H31.3608V29.1648H38.0959V30.1316H31.3608V31.2917H38.0959V32.2584H30.394ZM28.2671 32.2584V19.3038H29.2339V32.2584H28.2671Z" fill="#F5F5F5"/>
<path d="M39.6628 0.258629H55.3373V2.16637L50.1297 3.35227V24.5953C50.1297 31.1263 50.0093 34.9934 49.7687 36.1965C49.5281 37.3995 49.2531 38.6026 48.9438 39.8057C48.6344 41.0432 48.2391 42.04 47.7579 42.7962C47.311 43.5524 46.761 44.429 46.1079 45.4258C45.0767 46.9726 43.2205 48.9319 40.5394 51.3037L39.0957 50.4272C41.0206 47.9179 42.2581 45.9758 42.808 44.6008C43.358 43.2259 43.7361 42.1603 43.9424 41.4041C44.183 40.6479 44.3549 39.5823 44.458 38.2073C44.5955 36.4199 44.6642 33.7731 44.6642 30.267V3.35227L39.6628 2.16637V0.258629Z" fill="#F5F5F5"/>
<path d="M58.4643 32.2584V19.3038H66.1661V20.2705H59.431V21.4306H66.1661V22.3974H59.431V24.2343H65.1349V25.201H59.431V26.3611H65.1349V27.3279H59.431V32.2584H58.4643ZM56.3374 32.2584V19.3038H57.3041V32.2584H56.3374Z" fill="#F5F5F5"/>
<path d="M80.1851 25.7811C80.1851 24.664 79.9165 23.6757 79.3794 22.8164C78.8638 21.9356 78.1441 21.2373 77.2203 20.7217C76.318 20.2061 75.2975 19.9483 74.1589 19.9483C73.0203 19.9483 71.9891 20.2061 71.0653 20.7217C70.163 21.2373 69.4433 21.9356 68.9062 22.8164C68.3906 23.6757 68.1328 24.664 68.1328 25.7811C68.1328 26.8768 68.3906 27.865 68.9062 28.7459C69.4433 29.6267 70.163 30.3249 71.0653 30.8405C71.9891 31.3561 73.0203 31.6139 74.1589 31.6139C75.2975 31.6139 76.318 31.3561 77.2203 30.8405C78.1441 30.3249 78.8638 29.6267 79.3794 28.7459C79.9165 27.865 80.1851 26.8768 80.1851 25.7811ZM78.0582 25.7811C78.0582 24.7069 77.6822 23.8261 76.9303 23.1386C76.1999 22.4297 75.2761 22.0752 74.1589 22.0752C73.0418 22.0752 72.1072 22.4297 71.3553 23.1386C70.6248 23.8261 70.2596 24.7069 70.2596 25.7811C70.2596 26.8338 70.6248 27.7147 71.3553 28.4236C72.1072 29.1326 73.0418 29.4871 74.1589 29.4871C75.2761 29.4871 76.1999 29.1326 76.9303 28.4236C77.6822 27.7147 78.0582 26.8338 78.0582 25.7811ZM74.1589 30.4538C73.2351 30.4538 72.408 30.2497 71.6775 29.8415C70.9471 29.4333 70.367 28.8748 69.9374 28.1658C69.5077 27.4569 69.2929 26.662 69.2929 25.7811C69.2929 24.9003 69.5077 24.1054 69.9374 23.3964C70.367 22.6875 70.9471 22.1289 71.6775 21.7207C72.408 21.3125 73.2351 21.1084 74.1589 21.1084C75.0827 21.1084 75.9098 21.3125 76.6403 21.7207C77.3707 22.1289 77.9508 22.6875 78.3804 23.3964C78.8101 24.1054 79.0249 24.9003 79.0249 25.7811C79.0249 26.662 78.8101 27.4569 78.3804 28.1658C77.9508 28.8748 77.3707 29.4333 76.6403 29.8415C75.9098 30.2497 75.0827 30.4538 74.1589 30.4538ZM74.1589 32.5807C72.8484 32.5807 71.6668 32.2799 70.6141 31.6784C69.5614 31.0768 68.7236 30.2605 68.1005 29.2293C67.4775 28.198 67.166 27.0487 67.166 25.7811C67.166 24.4921 67.4775 23.3427 68.1005 22.333C68.7236 21.3018 69.5614 20.4854 70.6141 19.8839C71.6668 19.2823 72.8484 18.9816 74.1589 18.9816C75.4694 18.9816 76.651 19.2823 77.7037 19.8839C78.7564 20.4854 79.5943 21.3018 80.2173 22.333C80.8403 23.3427 81.1518 24.4921 81.1518 25.7811C81.1518 27.0487 80.8403 28.198 80.2173 29.2293C79.5943 30.2605 78.7564 31.0768 77.7037 31.6784C76.651 32.2799 75.4694 32.5807 74.1589 32.5807Z" fill="#F5F5F5"/>
<path d="M82.1519 27.2635V19.1427H83.1187V27.2312C83.1187 28.6062 83.5269 29.6589 84.3432 30.3893C85.1811 31.0983 86.1693 31.4528 87.308 31.4528C88.4466 31.4528 89.4241 31.0983 90.2405 30.3893C91.0783 29.6589 91.4973 28.6062 91.4973 27.2312V19.1427H92.464V27.2635C92.4426 28.3591 92.1955 29.2937 91.7229 30.0671C91.2717 30.819 90.6594 31.3991 89.886 31.8073C89.1126 32.2154 88.2533 32.4195 87.308 32.4195C86.3627 32.4195 85.4926 32.2154 84.6977 31.8073C83.9243 31.3991 83.3013 30.8083 82.8286 30.0349C82.3775 29.2615 82.1519 28.3377 82.1519 27.2635ZM84.2788 27.2635V19.1427H85.2455V27.2312C85.2455 27.9617 85.4495 28.4988 85.8577 28.8425C86.2659 29.1648 86.7494 29.3259 87.308 29.3259C87.8665 29.3259 88.3498 29.1648 88.758 28.8425C89.1662 28.4988 89.3704 27.9617 89.3704 27.2312V19.1427H90.3372V27.2635C90.3157 28.2732 90.0041 29.0359 89.4025 29.5515C88.8225 30.0456 88.1244 30.2927 87.308 30.2927C86.4916 30.2927 85.7826 30.0349 85.1811 29.5193C84.5796 29.0036 84.2788 28.2517 84.2788 27.2635Z" fill="#F5F5F5"/>
<path d="M93.4641 32.2584V19.3038H94.4309V32.2584H93.4641ZM104.228 32.2584V19.3038H105.195V32.2584H104.228ZM102.101 28.6491L96.5577 20.9473V22.913L102.101 30.6149V28.6491ZM95.591 32.2584V19.3038H96.5577L102.101 27.0056V19.3038H103.068V32.2584H102.101L96.5577 24.5565V32.2584H95.591Z" fill="#F5F5F5"/>
<path d="M108.322 32.2584V19.3038H111.545C112.898 19.3253 114.091 19.6153 115.122 20.1739C116.153 20.7324 116.959 21.4951 117.539 22.4619C118.14 23.4286 118.441 24.535 118.441 25.7811C118.441 27.0271 118.14 28.1443 117.539 29.1325C116.959 30.0993 116.142 30.862 115.09 31.4205C114.058 31.9791 112.877 32.2584 111.545 32.2584H108.322ZM106.195 32.2584V19.3038H107.162V32.2584H106.195ZM111.448 20.2705H109.289V21.4306H111.545C112.963 21.4521 114.112 21.8603 114.993 22.6552C115.874 23.4501 116.314 24.4921 116.314 25.7811C116.314 27.0916 115.863 28.1443 114.961 28.9392C114.08 29.7341 112.941 30.1315 111.545 30.1315H109.289V31.2916H111.448C112.651 31.2916 113.704 31.066 114.606 30.6149C115.509 30.1423 116.207 29.487 116.701 28.6491C117.217 27.8113 117.474 26.8553 117.474 25.7811C117.474 24.6854 117.217 23.7294 116.701 22.913C116.207 22.0752 115.509 21.4306 114.606 20.9795C113.704 20.5069 112.651 20.2705 111.448 20.2705ZM111.448 22.3974H109.289V29.1647H111.448C112.651 29.1647 113.597 28.864 114.284 28.2624C114.993 27.6609 115.347 26.8338 115.347 25.7811C115.347 24.7284 114.993 23.9013 114.284 23.2997C113.597 22.6982 112.651 22.3974 111.448 22.3974Z" fill="#F5F5F5"/>
<path d="M121.696 32.2584L126.4 19.3038H127.432L132.137 32.2584H131.105L126.916 20.7217L126.304 22.3974L129.881 32.2584H128.85L128.302 30.7116H123.275L122.727 32.2584H121.696ZM119.44 32.2584L124.145 19.3038H125.176L120.471 32.2584H119.44ZM124.402 27.6179H127.174L125.788 23.8153L124.402 27.6179ZM123.629 29.7448H127.947L127.528 28.5847H124.048L123.629 29.7448Z" fill="#F5F5F5"/>
<path d="M133.137 20.2705V19.3038H143.739V20.2705H133.137ZM136.875 32.2584V22.3974H133.137V21.4306H143.739V22.3974H139.969V32.2584H139.002V22.3974H137.842V32.2584H136.875Z" fill="#F5F5F5"/>
<path d="M146.867 32.2584V19.3038H147.833V32.2584H146.867ZM144.74 32.2584V19.3038H145.706V32.2584H144.74Z" fill="#F5F5F5"/>
<path d="M161.853 25.7811C161.853 24.664 161.584 23.6757 161.047 22.8164C160.532 21.9356 159.811 21.2373 158.887 20.7217C157.985 20.2061 156.965 19.9483 155.827 19.9483C154.688 19.9483 153.656 20.2061 152.732 20.7217C151.83 21.2373 151.111 21.9356 150.574 22.8164C150.058 23.6757 149.799 24.664 149.799 25.7811C149.799 26.8768 150.058 27.865 150.574 28.7459C151.111 29.6267 151.83 30.3249 152.732 30.8405C153.656 31.3561 154.688 31.6139 155.827 31.6139C156.965 31.6139 157.985 31.3561 158.887 30.8405C159.811 30.3249 160.532 29.6267 161.047 28.7459C161.584 27.865 161.853 26.8768 161.853 25.7811ZM159.726 25.7811C159.726 24.7069 159.35 23.8261 158.598 23.1386C157.868 22.4297 156.944 22.0752 155.827 22.0752C154.709 22.0752 153.775 22.4297 153.023 23.1386C152.293 23.8261 151.926 24.7069 151.926 25.7811C151.926 26.8338 152.293 27.7147 153.023 28.4236C153.775 29.1326 154.709 29.4871 155.827 29.4871C156.944 29.4871 157.868 29.1326 158.598 28.4236C159.35 27.7147 159.726 26.8338 159.726 25.7811ZM155.827 30.4538C154.903 30.4538 154.075 30.2497 153.344 29.8415C152.614 29.4333 152.035 28.8748 151.605 28.1658C151.175 27.4569 150.961 26.662 150.961 25.7811C150.961 24.9003 151.175 24.1054 151.605 23.3964C152.035 22.6875 152.614 22.1289 153.344 21.7207C154.075 21.3125 154.903 21.1084 155.827 21.1084C156.75 21.1084 157.578 21.3125 158.308 21.7207C159.038 22.1289 159.618 22.6875 160.048 23.3964C160.478 24.1054 160.693 24.9003 160.693 25.7811C160.693 26.662 160.478 27.4569 160.048 28.1658C159.618 28.8748 159.038 29.4333 158.308 29.8415C157.578 30.2497 156.75 30.4538 155.827 30.4538ZM155.827 32.5807C154.516 32.5807 153.335 32.2799 152.282 31.6784C151.229 31.0768 150.391 30.2605 149.768 29.2293C149.145 28.198 148.833 27.0487 148.833 25.7811C148.833 24.4921 149.145 23.3427 149.768 22.333C150.391 21.3018 151.229 20.4854 152.282 19.8839C153.335 19.2823 154.516 18.9816 155.827 18.9816C157.137 18.9816 158.318 19.2823 159.37 19.8839C160.423 20.4854 161.262 21.3018 161.885 22.333C162.508 23.3427 162.82 24.4921 162.82 25.7811C162.82 27.0487 162.508 28.198 161.885 29.2293C161.262 30.2605 160.423 31.0768 159.37 31.6784C158.318 32.2799 157.137 32.5807 155.827 32.5807Z" fill="#F5F5F5"/>
<path d="M163.82 32.2584V19.3038H164.787V32.2584H163.82ZM174.583 32.2584V19.3038H175.55V32.2584H174.583ZM172.456 28.6491L166.914 20.9473V22.913L172.456 30.6149V28.6491ZM165.947 32.2584V19.3038H166.914L172.456 27.0056V19.3038H173.423V32.2584H172.456L166.914 24.5565V32.2584H165.947Z" fill="#F5F5F5"/>
<path d="M4.45044 52.5085H40.1685" stroke="#F5F5F5" stroke-width="0.5"/>
<path d="M41.1685 52.3037L171.388 52.7134" stroke="#F5F5F5" stroke-width="0.5"/>
<path d="M4.45044 59.3054V53.8094H5.07444L8.48244 58.2814V53.8094H9.10644V59.3054H8.48244L5.07444 54.8334V59.3054H4.45044Z" fill="#F5F5F5"/>
<path d="M14.0504 54.4014H10.7384V56.2094H13.7224V56.8014H10.7384V58.7134H14.0504V59.3054H10.1064V53.8094H14.0504V54.4014Z" fill="#F5F5F5"/>
<path d="M16.9305 59.3054L15.0505 53.8094H15.7545L17.2745 58.2574L18.7305 53.8094H19.4265L20.8825 58.2574L22.4025 53.8094H23.1065L21.2265 59.3054H20.6105L19.0825 54.6254L17.5465 59.3054H16.9305Z" fill="#F5F5F5"/>
<path d="M26.3224 59.3054V57.0654L24.1064 53.8094H24.8824L26.6504 56.4734L28.4348 53.8094H29.1868L26.9784 57.0654V59.3054H26.3224Z" fill="#F5F5F5"/>
<path d="M34.9788 58.5614C34.4238 59.1214 33.7648 59.4014 33.0028 59.4014C32.2398 59.4014 31.5788 59.1214 31.0188 58.5614C30.4638 57.9961 30.1868 57.3268 30.1868 56.5534C30.1868 55.7801 30.4638 55.1134 31.0188 54.5534C31.5788 53.9934 32.2398 53.7134 33.0028 53.7134C33.7648 53.7134 34.4238 53.9934 34.9788 54.5534C35.5328 55.1134 35.8108 55.7801 35.8108 56.5534C35.8108 57.3268 35.5328 57.9961 34.9788 58.5614ZM31.4668 58.1534C31.8988 58.6014 32.4108 58.8254 33.0028 58.8254C33.5948 58.8254 34.1038 58.6014 34.5308 58.1534C34.9628 57.7054 35.1788 57.1721 35.1788 56.5534C35.1788 55.9401 34.9628 55.4094 34.5308 54.9614C34.1038 54.5134 33.5948 54.2894 33.0028 54.2894C32.4108 54.2894 31.8988 54.5134 31.4668 54.9614C31.0348 55.4094 30.8188 55.9401 30.8188 56.5534C30.8188 57.1668 31.0348 57.7001 31.4668 58.1534Z" fill="#F5F5F5"/>
<path d="M41.0668 55.5694C41.0668 55.9961 40.9278 56.3641 40.6508 56.6734C40.3738 56.9774 40.0138 57.1774 39.5708 57.2734L40.9948 59.3054H40.2828L38.8908 57.3294H37.4348V59.3054H36.8108V53.8094H39.0428C39.6188 53.8094 40.0988 53.9748 40.4828 54.3054C40.8718 54.6361 41.0668 55.0574 41.0668 55.5694ZM37.4348 54.4014V56.7374H38.9308C39.3838 56.7374 39.7468 56.6334 40.0188 56.4254C40.2958 56.2174 40.4348 55.9321 40.4348 55.5694C40.4348 55.2068 40.2958 54.9214 40.0188 54.7134C39.7468 54.5054 39.3838 54.4014 38.9308 54.4014H37.4348Z" fill="#F5F5F5"/>
<path d="M42.0669 59.3054V53.8094H42.6909V56.8494L45.4749 53.8094H46.2989L43.9869 56.3214L46.4509 59.3054H45.6429L43.5549 56.7454L42.6909 57.6574V59.3054H42.0669Z" fill="#F5F5F5"/>
<path d="M50.2669 59.4014C49.5039 59.4014 48.8429 59.1214 48.2829 58.5614C47.7279 57.9961 47.4509 57.3268 47.4509 56.5534C47.4509 55.7801 47.7279 55.1134 48.2829 54.5534C48.8429 53.9934 49.5039 53.7134 50.2669 53.7134C51.0349 53.7134 51.6929 53.9934 52.2429 54.5534L51.8189 54.9854C51.3809 54.5214 50.8639 54.2894 50.2669 54.2894C49.6749 54.2894 49.1629 54.5134 48.7309 54.9614C48.2989 55.4094 48.0829 55.9401 48.0829 56.5534C48.0829 57.1668 48.2989 57.7001 48.7309 58.1534C49.1629 58.6014 49.6749 58.8254 50.2669 58.8254C50.8639 58.8254 51.3809 58.5934 51.8189 58.1294L52.2429 58.5614C51.6829 59.1214 51.0239 59.4014 50.2669 59.4014Z" fill="#F5F5F5"/>
<path d="M53.2429 59.3054V53.8094H53.8669V59.3054H53.2429Z" fill="#F5F5F5"/>
<path d="M56.715 59.3054V54.4014H54.8669V53.8094H59.187V54.4014H57.3389V59.3054H56.715Z" fill="#F5F5F5"/>
<path d="M62.4028 59.3054V57.0654L60.1868 53.8094H60.9628L62.7308 56.4734L64.5148 53.8094H65.2668L63.0588 57.0654V59.3054H62.4028Z" fill="#F5F5F5"/>
</g>
</g>
</g>
</g>
<defs>
<clipPath id="clip0_62_460">
<rect width="180" height="59.66" fill="white"/>
</clipPath>
<clipPath id="clip1_62_460">
<rect width="180" height="59.66" fill="white"/>
</clipPath>
<clipPath id="clip2_62_460">
<rect width="193.099" height="59.1427" fill="white" transform="translate(-6.54956 0.258629)"/>
</clipPath>
<clipPath id="clip3_62_460">
<rect width="173.099" height="59.1427" fill="white" transform="translate(3.45044 0.258629)"/>
</clipPath>
</defs>
</svg>
