<svg version="1.1" id="Layer_1" xmlns="http://www.w3.org/2000/svg" xmlns:xlink="http://www.w3.org/1999/xlink" x="0px" y="0px" viewBox="0 0 793 173" style="enable-background:new 0 0 793 173;" xml:space="preserve">
  <rect transform="matrix(1,0,0,1,0,0)" x="269" y="120" style="fill: rgb(169, 163, 158); fill-opacity: 0.5034; transform-origin: 0px 0px;" width="1" height="53" data-svg-origin="269 120"></rect>
    <rect transform="matrix(1,0,0,1,0,0)" x="258" y="120" style="fill: rgb(169, 163, 158); fill-opacity: 0.5034; transform-origin: 0px 0px;" width="1" height="53" data-svg-origin="258 120"></rect>
    <rect transform="matrix(1,0,0,1,0,0)" x="198" y="114.2" style="fill: rgb(169, 163, 158); fill-opacity: 0.5034; transform-origin: 0px 0px;" width="1" height="58.8" data-svg-origin="198 114.19999694824219"></rect>
    <rect transform="matrix(1,0,0,1,0,0)" x="253" y="109.7" style="fill: rgb(169, 163, 158); fill-opacity: 0.5034; transform-origin: 0px 0px;" width="1" height="63.3" data-svg-origin="253 109.69999694824219"></rect>
    <rect transform="matrix(1,0,0,1,0,0)" x="274" y="107.7" style="fill: rgb(169, 163, 158); fill-opacity: 0.5034; transform-origin: 0px 0px;" width="1" height="65.3" data-svg-origin="274 107.69999694824219"></rect>
    <rect transform="matrix(1,0,0,1,0,0)" x="297" y="105.3" style="fill: rgb(169, 163, 158); fill-opacity: 0.5034; transform-origin: 0px 0px;" width="1" height="67.7" data-svg-origin="297 105.30000305175781"></rect>
    <rect transform="matrix(1,0,0,1,0,0)" x="247" y="120" style="fill: rgb(169, 163, 158); fill-opacity: 0.5034; transform-origin: 0px 0px;" width="1" height="53" data-svg-origin="247 120"></rect>
    <rect transform="matrix(1,0,0,1,0,0)" x="292" y="120" style="fill: rgb(169, 163, 158); fill-opacity: 0.5034; transform-origin: 0px 0px;" width="1" height="53" data-svg-origin="292 120"></rect>
    <rect transform="matrix(1,0,0,1,0,0)" x="280" y="120" style="fill: rgb(169, 163, 158); fill-opacity: 0.5034; transform-origin: 0px 0px;" width="1" height="53" data-svg-origin="280 120"></rect>
    <rect transform="matrix(1,0,0,1,0,0)" x="286" y="106.5" style="fill: rgb(169, 163, 158); fill-opacity: 0.5034; transform-origin: 0px 0px;" width="1" height="66.5" data-svg-origin="286 106.5"></rect>
    <rect transform="matrix(1,0,0,1,0,0)" x="242" y="110.6" style="fill: rgb(169, 163, 158); fill-opacity: 0.5034; transform-origin: 0px 0px;" width="1" height="62.4" data-svg-origin="242 110.5999984741211"></rect>
    <rect transform="matrix(1,0,0,1,0,0)" x="209" y="113.3" style="fill: rgb(169, 163, 158); fill-opacity: 0.5034; transform-origin: 0px 0px;" width="1" height="59.7" data-svg-origin="209 113.30000305175781"></rect>
    <rect transform="matrix(1,0,0,1,0,0)" x="204" y="120" style="fill: rgb(169, 163, 158); fill-opacity: 0.5034; transform-origin: 0px 0px;" width="1" height="53" data-svg-origin="204 120"></rect>
    <rect transform="matrix(1,0,0,1,0,0)" x="220" y="112.4" style="fill: rgb(169, 163, 158); fill-opacity: 0.5034; transform-origin: 0px 0px;" width="1" height="60.6" data-svg-origin="220 112.4000015258789"></rect>
    <rect transform="matrix(1,0,0,1,0,0)" x="215" y="120" style="fill: rgb(169, 163, 158); fill-opacity: 0.5034; transform-origin: 0px 0px;" width="1" height="53" data-svg-origin="215 120"></rect>
    <rect transform="matrix(1,0,0,1,0,0)" x="236" y="120" style="fill: rgb(169, 163, 158); fill-opacity: 0.5034; transform-origin: 0px 0px;" width="1" height="53" data-svg-origin="236 120"></rect>
    <rect transform="matrix(1,0,0,1,0,0)" x="231" y="111.6" style="fill: rgb(169, 163, 158); fill-opacity: 0.5034; transform-origin: 0px 0px;" width="1" height="61.4" data-svg-origin="231 111.5999984741211"></rect>
    <rect transform="matrix(1,0,0,1,0,0)" x="225" y="120" style="fill: rgb(169, 163, 158); fill-opacity: 0.5034; transform-origin: 0px 0px;" width="1" height="53" data-svg-origin="225 120"></rect>
    <rect transform="matrix(1,0,0,1,0,0)" x="264" y="108.6" style="fill: rgb(169, 163, 158); fill-opacity: 0.5034; transform-origin: 0px 0px;" width="1" height="64.4" data-svg-origin="264 108.5999984741211"></rect>
    <rect transform="matrix(1,0,0,1,0,0)" x="368" y="120" style="fill: rgb(169, 163, 158); fill-opacity: 0.5034; transform-origin: 0px 0px;" width="1" height="53" data-svg-origin="368 120"></rect>
    <rect transform="matrix(1,0,0,1,0,0)" x="363" y="97.2" style="fill: rgb(169, 163, 158); fill-opacity: 0.5034; transform-origin: 0px 0px;" width="1" height="75.8" data-svg-origin="363 97.19999694824219"></rect>
    <rect transform="matrix(1,0,0,1,0,0)" x="374" y="95.6" style="fill: rgb(169, 163, 158); fill-opacity: 0.5034; transform-origin: 0px 0px;" width="1" height="77.4" data-svg-origin="374 95.5999984741211"></rect>
    <rect transform="matrix(1,0,0,1,0,0)" x="352" y="98.6" style="fill: rgb(169, 163, 158); fill-opacity: 0.5034; transform-origin: 0px 0px;" width="1" height="74.4" data-svg-origin="352 98.5999984741211"></rect>
    <rect transform="matrix(1,0,0,1,0,0)" x="358" y="120" style="fill: rgb(169, 163, 158); fill-opacity: 0.5034; transform-origin: 0px 0px;" width="1" height="53" data-svg-origin="358 120"></rect>
    <rect transform="matrix(1,0,0,1,0,0)" x="380" y="120" style="fill: rgb(169, 163, 158); fill-opacity: 0.5034; transform-origin: 0px 0px;" width="1" height="53" data-svg-origin="380 120"></rect>
    <rect transform="matrix(1,0,0,1,0,0)" x="391" y="120" style="fill: rgb(169, 163, 158); fill-opacity: 0.5034; transform-origin: 0px 0px;" width="1" height="53" data-svg-origin="391 120"></rect>
    <rect transform="matrix(1,0,0,1,0,0)" x="385" y="94.2" style="fill: rgb(169, 163, 158); fill-opacity: 0.5034; transform-origin: 0px 0px;" width="1" height="78.8" data-svg-origin="385 94.19999694824219"></rect>
    <rect transform="matrix(1,0,0,1,0,0)" x="330" y="101.7" style="fill: rgb(169, 163, 158); fill-opacity: 0.5034; transform-origin: 0px 0px;" width="1" height="71.3" data-svg-origin="330 101.69999694824219"></rect>
    <rect transform="matrix(1,0,0,1,0,0)" x="313" y="120" style="fill: rgb(169, 163, 158); fill-opacity: 0.5034; transform-origin: 0px 0px;" width="1" height="53" data-svg-origin="313 120"></rect>
    <rect transform="matrix(1,0,0,1,0,0)" x="347" y="120" style="fill: rgb(169, 163, 158); fill-opacity: 0.5034; transform-origin: 0px 0px;" width="1" height="53" data-svg-origin="347 120"></rect>
    <rect transform="matrix(1,0,0,1,0,0)" x="319" y="102.8" style="fill: rgb(169, 163, 158); fill-opacity: 0.5034; transform-origin: 0px 0px;" width="1" height="70.2" data-svg-origin="319 102.80000305175781"></rect>
    <rect transform="matrix(1,0,0,1,0,0)" x="308" y="103.6" style="fill: rgb(169, 163, 158); fill-opacity: 0.5034; transform-origin: 0px 0px;" width="1" height="69.4" data-svg-origin="308 103.5999984741211"></rect>
    <rect transform="matrix(1,0,0,1,0,0)" x="324" y="120" style="fill: rgb(169, 163, 158); fill-opacity: 0.5034; transform-origin: 0px 0px;" width="1" height="53" data-svg-origin="324 120"></rect>
    <rect transform="matrix(1,0,0,1,0,0)" x="341" y="100.2" style="fill: rgb(169, 163, 158); fill-opacity: 0.5034; transform-origin: 0px 0px;" width="1" height="72.8" data-svg-origin="341 100.19999694824219"></rect>
    <rect transform="matrix(1,0,0,1,0,0)" x="336" y="120" style="fill: rgb(169, 163, 158); fill-opacity: 0.5034; transform-origin: 0px 0px;" width="1" height="53" data-svg-origin="336 120"></rect>
    <rect transform="matrix(1,0,0,1,0,0)" x="302" y="120" style="fill: rgb(169, 163, 158); fill-opacity: 0.5034; transform-origin: 0px 0px;" width="1" height="53" data-svg-origin="302 120"></rect>
    <rect transform="matrix(1,0,0,1,0,0)" x="87" y="119.9" style="fill: rgb(169, 163, 158); fill-opacity: 0.5034; transform-origin: 0px 0px;" width="1" height="53.1" data-svg-origin="87 119.9000015258789"></rect>
    <rect transform="matrix(1,0,0,1,0,0)" x="71" y="120" style="fill: rgb(169, 163, 158); fill-opacity: 0.5034; transform-origin: 0px 0px;" width="1" height="53" data-svg-origin="71 120"></rect>
    <rect transform="matrix(1,0,0,1,0,0)" x="66" y="120.3" style="fill: rgb(169, 163, 158); fill-opacity: 0.5034; transform-origin: 0px 0px;" width="1" height="52.7" data-svg-origin="66 120.30000305175781"></rect>
    <rect transform="matrix(1,0,0,1,0,0)" x="60" y="120.4" style="fill: rgb(169, 163, 158); fill-opacity: 0.5034; transform-origin: 0px 0px;" width="1" height="52.6" data-svg-origin="60 120.4000015258789"></rect>
    <rect transform="matrix(1,0,0,1,0,0)" x="55" y="120.5" style="fill: rgb(169, 163, 158); fill-opacity: 0.5034; transform-origin: 0px 0px;" width="1" height="52.5" data-svg-origin="55 120.5"></rect>
    <rect transform="matrix(1,0,0,1,0,0)" x="77" y="120.1" style="fill: rgb(169, 163, 158); fill-opacity: 0.5034; transform-origin: 0px 0px;" width="1" height="52.9" data-svg-origin="77 120.0999984741211"></rect>
    <rect transform="matrix(1,0,0,1,0,0)" x="396" y="92.4" style="fill: rgb(169, 163, 158); fill-opacity: 0.5034; transform-origin: 0px 0px;" width="1" height="80.6" data-svg-origin="396 92.4000015258789"></rect>
    <rect transform="matrix(1,0,0,1,0,0)" x="50" y="120.5" style="fill: rgb(169, 163, 158); fill-opacity: 0.5034; transform-origin: 0px 0px;" width="1" height="52.5" data-svg-origin="50 120.5"></rect>
    <rect transform="matrix(1,0,0,1,0,0)" x="82" y="119.7" style="fill: rgb(169, 163, 158); fill-opacity: 0.5034; transform-origin: 0px 0px;" width="1" height="53.3" data-svg-origin="82 119.69999694824219"></rect>
    <rect transform="matrix(1,0,0,1,0,0)" x="22" y="121" style="fill: rgb(169, 163, 158); fill-opacity: 0.5034; transform-origin: 0px 0px;" width="1" height="52" data-svg-origin="22 121"></rect>
    <rect transform="matrix(1,0,0,1,0,0)" x="16" y="121" style="fill: rgb(169, 163, 158); fill-opacity: 0.5034; transform-origin: 0px 0px;" width="1" height="52" data-svg-origin="16 121"></rect>
    <rect transform="matrix(1,0,0,1,0,0)" x="5" y="121.1" style="fill: rgb(169, 163, 158); fill-opacity: 0.5034; transform-origin: 0px 0px;" width="1" height="51.9" data-svg-origin="5 121.0999984741211"></rect>
    <rect transform="matrix(1,0,0,1,0,0)" x="192" y="120" style="fill: rgb(169, 163, 158); fill-opacity: 0.5034; transform-origin: 0px 0px;" width="1" height="53" data-svg-origin="192 120"></rect>
    <rect transform="matrix(1,0,0,1,0,0)" y="120.9" style="fill: rgb(169, 163, 158); fill-opacity: 0.5034; transform-origin: 0px 0px;" width="1" height="52.1" data-svg-origin="0 120.9000015258789"></rect>
    <rect transform="matrix(1,0,0,1,0,0)" x="11" y="121" style="fill: rgb(169, 163, 158); fill-opacity: 0.5034; transform-origin: 0px 0px;" width="1" height="52" data-svg-origin="11 121"></rect>
    <rect transform="matrix(1,0,0,1,0,0)" x="33" y="120.9" style="fill: rgb(169, 163, 158); fill-opacity: 0.5034; transform-origin: 0px 0px;" width="1" height="52.1" data-svg-origin="33 120.9000015258789"></rect>
    <rect transform="matrix(1,0,0,1,0,0)" x="28" y="120.7" style="fill: rgb(169, 163, 158); fill-opacity: 0.5034; transform-origin: 0px 0px;" width="1" height="52.3" data-svg-origin="28 120.69999694824219"></rect>
    <rect transform="matrix(1,0,0,1,0,0)" x="93" y="119.6" style="fill: rgb(169, 163, 158); fill-opacity: 0.5034; transform-origin: 0px 0px;" width="1" height="53.4" data-svg-origin="93 119.5999984741211"></rect>
    <rect transform="matrix(1,0,0,1,0,0)" x="44" y="120.7" style="fill: rgb(169, 163, 158); fill-opacity: 0.5034; transform-origin: 0px 0px;" width="1" height="52.3" data-svg-origin="44 120.69999694824219"></rect>
    <rect transform="matrix(1,0,0,1,0,0)" x="165" y="116.3" style="fill: rgb(169, 163, 158); fill-opacity: 0.5034; transform-origin: 0px 0px;" width="1" height="56.7" data-svg-origin="165 116.30000305175781"></rect>
    <rect transform="matrix(1,0,0,1,0,0)" x="171" y="120" style="fill: rgb(169, 163, 158); fill-opacity: 0.5034; transform-origin: 0px 0px;" width="1" height="53" data-svg-origin="171 120"></rect>
    <rect transform="matrix(1,0,0,1,0,0)" x="160" y="120" style="fill: rgb(169, 163, 158); fill-opacity: 0.5034; transform-origin: 0px 0px;" width="1" height="53" data-svg-origin="160 120"></rect>
    <rect transform="matrix(1,0,0,1,0,0)" x="98" y="119.4" style="fill: rgb(169, 163, 158); fill-opacity: 0.5034; transform-origin: 0px 0px;" width="1" height="53.6" data-svg-origin="98 119.4000015258789"></rect>
    <rect transform="matrix(1,0,0,1,0,0)" x="148" y="120" style="fill: rgb(169, 163, 158); fill-opacity: 0.5034; transform-origin: 0px 0px;" width="1" height="53" data-svg-origin="148 120"></rect>
    <rect transform="matrix(1,0,0,1,0,0)" x="187" y="115" style="fill: rgb(169, 163, 158); fill-opacity: 0.5034; transform-origin: 0px 0px;" width="1" height="58" data-svg-origin="187 115"></rect>
    <rect transform="matrix(1,0,0,1,0,0)" x="176" y="115.6" style="fill: rgb(169, 163, 158); fill-opacity: 0.5034; transform-origin: 0px 0px;" width="1" height="57.4" data-svg-origin="176 115.5999984741211"></rect>
    <rect transform="matrix(1,0,0,1,0,0)" x="181" y="120" style="fill: rgb(169, 163, 158); fill-opacity: 0.5034; transform-origin: 0px 0px;" width="1" height="53" data-svg-origin="181 120"></rect>
    <rect transform="matrix(1,0,0,1,0,0)" x="154" y="117.1" style="fill: rgb(169, 163, 158); fill-opacity: 0.5034; transform-origin: 0px 0px;" width="1" height="55.9" data-svg-origin="154 117.0999984741211"></rect>
    <rect transform="matrix(1,0,0,1,0,0)" x="115" y="120" style="fill: rgb(169, 163, 158); fill-opacity: 0.5034; transform-origin: 0px 0px;" width="1" height="53" data-svg-origin="115 120"></rect>
    <rect transform="matrix(1,0,0,1,0,0)" x="121" y="118.1" style="fill: rgb(169, 163, 158); fill-opacity: 0.5034; transform-origin: 0px 0px;" width="1" height="54.9" data-svg-origin="121 118.0999984741211"></rect>
    <rect transform="matrix(1,0,0,1,0,0)" x="109" y="119.2" style="fill: rgb(169, 163, 158); fill-opacity: 0.5034; transform-origin: 0px 0px;" width="1" height="53.8" data-svg-origin="109 119.19999694824219"></rect>
    <rect transform="matrix(1,0,0,1,0,0)" x="143" y="117.7" style="fill: rgb(169, 163, 158); fill-opacity: 0.5034; transform-origin: 0px 0px;" width="1" height="55.3" data-svg-origin="143 117.69999694824219"></rect>
    <rect transform="matrix(1,0,0,1,0,0)" x="104" y="120" style="fill: rgb(169, 163, 158); fill-opacity: 0.5034; transform-origin: 0px 0px;" width="1" height="53" data-svg-origin="104 120"></rect>
    <rect transform="matrix(1,0,0,1,0,0)" x="137" y="120" style="fill: rgb(169, 163, 158); fill-opacity: 0.5034; transform-origin: 0px 0px;" width="1" height="53" data-svg-origin="137 120"></rect>
    <rect transform="matrix(1,0,0,1,0,0)" x="132" y="118.1" style="fill: rgb(169, 163, 158); fill-opacity: 0.5034; transform-origin: 0px 0px;" width="1" height="54.9" data-svg-origin="132 118.0999984741211"></rect>
    <rect transform="matrix(1,0,0,1,0,0)" x="126" y="120" style="fill: rgb(169, 163, 158); fill-opacity: 0.5034; transform-origin: 0px 0px;" width="1" height="53" data-svg-origin="126 120"></rect>
    <rect transform="matrix(1,0,0,1,0,0)" x="39" y="120.8" style="fill: rgb(169, 163, 158); fill-opacity: 0.5034; transform-origin: 0px 0px;" width="1" height="52.2" data-svg-origin="39 120.80000305175781"></rect>
    <rect transform="matrix(1,0,0,1,0,0)" x="660" y="40.5" style="fill: rgb(169, 163, 158); fill-opacity: 0.5034; transform-origin: 0px 0px;" width="1" height="132.5" data-svg-origin="660 40.5"></rect>
    <rect transform="matrix(1,0,0,1,0,0)" x="665" y="120" style="fill: rgb(169, 163, 158); fill-opacity: 0.5034; transform-origin: 0px 0px;" width="1" height="53" data-svg-origin="665 120"></rect>
    <rect transform="matrix(1,0,0,1,0,0)" x="655" y="120" style="fill: rgb(169, 163, 158); fill-opacity: 0.5034; transform-origin: 0px 0px;" width="1" height="53" data-svg-origin="655 120"></rect>
    <rect transform="matrix(1,0,0,1,0,0)" x="671" y="74" style="fill: rgb(169, 163, 158); fill-opacity: 0.5034; transform-origin: 0px 0px;" width="1" height="99" data-svg-origin="671 74"></rect>
    <rect transform="matrix(1,0,0,1,0,0)" x="649" y="74" style="fill: rgb(169, 163, 158); fill-opacity: 0.5034; transform-origin: 0px 0px;" width="1" height="99" data-svg-origin="649 74"></rect>
    <rect transform="matrix(1,0,0,1,0,0)" x="694" y="74" style="fill: rgb(169, 163, 158); fill-opacity: 0.5034; transform-origin: 0px 0px;" width="1" height="99" data-svg-origin="694 74"></rect>
    <rect transform="matrix(1,0,0,1,0,0)" x="677" y="120" style="fill: rgb(169, 163, 158); fill-opacity: 0.5034; transform-origin: 0px 0px;" width="1" height="53" data-svg-origin="677 120"></rect>
    <rect transform="matrix(1,0,0,1,0,0)" x="688" y="120" style="fill: rgb(169, 163, 158); fill-opacity: 0.5034; transform-origin: 0px 0px;" width="1" height="53" data-svg-origin="688 120"></rect>
    <rect transform="matrix(1,0,0,1,0,0)" x="699" y="120" style="fill: rgb(169, 163, 158); fill-opacity: 0.5034; transform-origin: 0px 0px;" width="1" height="53" data-svg-origin="699 120"></rect>
    <rect transform="matrix(1,0,0,1,0,0)" x="683" y="34.2" style="fill: rgb(169, 163, 158); fill-opacity: 0.5034; transform-origin: 0px 0px;" width="1" height="138.8" data-svg-origin="683 34.20000076293945"></rect>
    <rect transform="matrix(1,0,0,1,0,0)" x="610" y="120" style="fill: rgb(169, 163, 158); fill-opacity: 0.5034; transform-origin: 0px 0px;" width="1" height="53" data-svg-origin="610 120"></rect>
    <rect transform="matrix(1,0,0,1,0,0)" x="616" y="50.6" style="fill: rgb(169, 163, 158); fill-opacity: 0.5034; transform-origin: 0px 0px;" width="1" height="122.4" data-svg-origin="616 50.599998474121094"></rect>
    <rect transform="matrix(1,0,0,1,0,0)" x="401" y="120" style="fill: rgb(169, 163, 158); fill-opacity: 0.5034; transform-origin: 0px 0px;" width="1" height="53" data-svg-origin="401 120"></rect>
    <rect transform="matrix(1,0,0,1,0,0)" x="621" y="120" style="fill: rgb(169, 163, 158); fill-opacity: 0.5034; transform-origin: 0px 0px;" width="1" height="53" data-svg-origin="621 120"></rect>
    <rect transform="matrix(1,0,0,1,0,0)" x="627" y="74" style="fill: rgb(169, 163, 158); fill-opacity: 0.5034; transform-origin: 0px 0px;" width="1" height="99" data-svg-origin="627 74"></rect>
    <rect transform="matrix(1,0,0,1,0,0)" x="638" y="45.5" style="fill: rgb(169, 163, 158); fill-opacity: 0.5034; transform-origin: 0px 0px;" width="1" height="127.5" data-svg-origin="638 45.5"></rect>
    <rect transform="matrix(1,0,0,1,0,0)" x="644" y="120" style="fill: rgb(169, 163, 158); fill-opacity: 0.5034; transform-origin: 0px 0px;" width="1" height="53" data-svg-origin="644 120"></rect>
    <rect transform="matrix(1,0,0,1,0,0)" x="632" y="120" style="fill: rgb(169, 163, 158); fill-opacity: 0.5034; transform-origin: 0px 0px;" width="1" height="53" data-svg-origin="632 120"></rect>
    <rect transform="matrix(1,0,0,1,0,0)" x="726" y="22.6" style="fill: rgb(169, 163, 158); fill-opacity: 0.5034; transform-origin: 0px 0px;" width="1" height="150.4" data-svg-origin="726 22.600000381469727"></rect>
    <rect transform="matrix(1,0,0,1,0,0)" x="753" y="120" style="fill: rgb(169, 163, 158); fill-opacity: 0.5034; transform-origin: 0px 0px;" width="1" height="53" data-svg-origin="753 120"></rect>
    <rect transform="matrix(1,0,0,1,0,0)" x="770" y="9.6" style="fill: rgb(169, 163, 158); fill-opacity: 0.5034; transform-origin: 0px 0px;" width="1" height="163.4" data-svg-origin="770 9.600000381469727"></rect>
    <rect transform="matrix(1,0,0,1,0,0)" x="759" y="74" style="fill: rgb(169, 163, 158); fill-opacity: 0.5034; transform-origin: 0px 0px;" width="1" height="99" data-svg-origin="759 74"></rect>
    <rect transform="matrix(1,0,0,1,0,0)" x="776" y="120" style="fill: rgb(169, 163, 158); fill-opacity: 0.5034; transform-origin: 0px 0px;" width="1" height="53" data-svg-origin="776 120"></rect>
    <rect transform="matrix(1,0,0,1,0,0)" x="764" y="120" style="fill: rgb(169, 163, 158); fill-opacity: 0.5034; transform-origin: 0px 0px;" width="1" height="53" data-svg-origin="764 120"></rect>
    <rect transform="matrix(1,0,0,1,0,0)" x="781" y="74" style="fill: rgb(169, 163, 158); fill-opacity: 0.5034; transform-origin: 0px 0px;" width="1" height="99" data-svg-origin="781 74"></rect>
    <rect transform="matrix(1,0,0,1,0,0)" x="792" style="fill: rgb(169, 163, 158); fill-opacity: 0.5034; transform-origin: 0px 0px;" width="1" height="173" data-svg-origin="792 0"></rect>
    <rect transform="matrix(1,0,0,1,0,0)" x="787" y="120" style="fill: rgb(169, 163, 158); fill-opacity: 0.5034; transform-origin: 0px 0px;" width="1" height="53" data-svg-origin="787 120"></rect>
    <rect transform="matrix(1,0,0,1,0,0)" x="748" y="16.2" style="fill: rgb(169, 163, 158); fill-opacity: 0.5034; transform-origin: 0px 0px;" width="1" height="156.8" data-svg-origin="748 16.200000762939453"></rect>
    <rect transform="matrix(1,0,0,1,0,0)" x="715" y="74" style="fill: rgb(169, 163, 158); fill-opacity: 0.5034; transform-origin: 0px 0px;" width="1" height="99" data-svg-origin="715 74"></rect>
    <rect transform="matrix(1,0,0,1,0,0)" x="600" y="120" style="fill: rgb(169, 163, 158); fill-opacity: 0.5034; transform-origin: 0px 0px;" width="1" height="53" data-svg-origin="600 120"></rect>
    <rect transform="matrix(1,0,0,1,0,0)" x="721" y="120" style="fill: rgb(169, 163, 158); fill-opacity: 0.5034; transform-origin: 0px 0px;" width="1" height="53" data-svg-origin="721 120"></rect>
    <rect transform="matrix(1,0,0,1,0,0)" x="710" y="120" style="fill: rgb(169, 163, 158); fill-opacity: 0.5034; transform-origin: 0px 0px;" width="1" height="53" data-svg-origin="710 120"></rect>
    <rect transform="matrix(1,0,0,1,0,0)" x="732" y="120" style="fill: rgb(169, 163, 158); fill-opacity: 0.5034; transform-origin: 0px 0px;" width="1" height="53" data-svg-origin="732 120"></rect>
    <rect transform="matrix(1,0,0,1,0,0)" x="742" y="120" style="fill: rgb(169, 163, 158); fill-opacity: 0.5034; transform-origin: 0px 0px;" width="1" height="53" data-svg-origin="742 120"></rect>
    <rect transform="matrix(1,0,0,1,0,0)" x="737" y="74" style="fill: rgb(169, 163, 158); fill-opacity: 0.5034; transform-origin: 0px 0px;" width="1" height="99" data-svg-origin="737 74"></rect>
    <rect transform="matrix(1,0,0,1,0,0)" x="704" y="28.7" style="fill: rgb(169, 163, 158); fill-opacity: 0.5034; transform-origin: 0px 0px;" width="1" height="144.3" data-svg-origin="704 28.700000762939453"></rect>
    <rect transform="matrix(1,0,0,1,0,0)" x="605" y="74" style="fill: rgb(169, 163, 158); fill-opacity: 0.5034; transform-origin: 0px 0px;" width="1" height="99" data-svg-origin="605 74"></rect>
    <rect transform="matrix(1,0,0,1,0,0)" x="450" y="83.5" style="fill: rgb(169, 163, 158); fill-opacity: 0.5034; transform-origin: 0px 0px;" width="1" height="89.5" data-svg-origin="450 83.5"></rect>
    <rect transform="matrix(1,0,0,1,0,0)" x="462" y="82.1" style="fill: rgb(169, 163, 158); fill-opacity: 0.5034; transform-origin: 0px 0px;" width="1" height="90.9" data-svg-origin="462 82.0999984741211"></rect>
    <rect transform="matrix(1,0,0,1,0,0)" x="456" y="120" style="fill: rgb(169, 163, 158); fill-opacity: 0.5034; transform-origin: 0px 0px;" width="1" height="53" data-svg-origin="456 120"></rect>
    <rect transform="matrix(1,0,0,1,0,0)" x="473" y="80.1" style="fill: rgb(169, 163, 158); fill-opacity: 0.5034; transform-origin: 0px 0px;" width="1" height="92.9" data-svg-origin="473 80.0999984741211"></rect>
    <rect transform="matrix(1,0,0,1,0,0)" x="495" y="76.2" style="fill: rgb(169, 163, 158); fill-opacity: 0.5034; transform-origin: 0px 0px;" width="1" height="96.8" data-svg-origin="495 76.19999694824219"></rect>
    <rect transform="matrix(1,0,0,1,0,0)" x="478" y="120" style="fill: rgb(169, 163, 158); fill-opacity: 0.5034; transform-origin: 0px 0px;" width="1" height="53" data-svg-origin="478 120"></rect>
    <rect transform="matrix(1,0,0,1,0,0)" x="489" y="120" style="fill: rgb(169, 163, 158); fill-opacity: 0.5034; transform-origin: 0px 0px;" width="1" height="53" data-svg-origin="489 120"></rect>
    <rect transform="matrix(1,0,0,1,0,0)" x="484" y="77.8" style="fill: rgb(169, 163, 158); fill-opacity: 0.5034; transform-origin: 0px 0px;" width="1" height="95.2" data-svg-origin="484 77.80000305175781"></rect>
    <rect transform="matrix(1,0,0,1,0,0)" x="468" y="120" style="fill: rgb(169, 163, 158); fill-opacity: 0.5034; transform-origin: 0px 0px;" width="1" height="53" data-svg-origin="468 120"></rect>
    <rect transform="matrix(1,0,0,1,0,0)" x="445" y="120" style="fill: rgb(169, 163, 158); fill-opacity: 0.5034; transform-origin: 0px 0px;" width="1" height="53" data-svg-origin="445 120"></rect>
    <rect transform="matrix(1,0,0,1,0,0)" x="412" y="120" style="fill: rgb(169, 163, 158); fill-opacity: 0.5034; transform-origin: 0px 0px;" width="1" height="53" data-svg-origin="412 120"></rect>
    <rect transform="matrix(1,0,0,1,0,0)" x="418" y="89.4" style="fill: rgb(169, 163, 158); fill-opacity: 0.5034; transform-origin: 0px 0px;" width="1" height="83.6" data-svg-origin="418 89.4000015258789"></rect>
    <rect transform="matrix(1,0,0,1,0,0)" x="407" y="90.9" style="fill: rgb(169, 163, 158); fill-opacity: 0.5034; transform-origin: 0px 0px;" width="1" height="82.1" data-svg-origin="407 90.9000015258789"></rect>
    <rect transform="matrix(1,0,0,1,0,0)" x="423" y="120" style="fill: rgb(169, 163, 158); fill-opacity: 0.5034; transform-origin: 0px 0px;" width="1" height="53" data-svg-origin="423 120"></rect>
    <rect transform="matrix(1,0,0,1,0,0)" x="429" y="87.5" style="fill: rgb(169, 163, 158); fill-opacity: 0.5034; transform-origin: 0px 0px;" width="1" height="85.5" data-svg-origin="429 87.5"></rect>
    <rect transform="matrix(1,0,0,1,0,0)" x="440" y="85.7" style="fill: rgb(169, 163, 158); fill-opacity: 0.5034; transform-origin: 0px 0px;" width="1" height="87.3" data-svg-origin="440 85.69999694824219"></rect>
    <rect transform="matrix(1,0,0,1,0,0)" x="434" y="120" style="fill: rgb(169, 163, 158); fill-opacity: 0.5034; transform-origin: 0px 0px;" width="1" height="53" data-svg-origin="434 120"></rect>
    <rect transform="matrix(1,0,0,1,0,0)" x="534" y="120" style="fill: rgb(169, 163, 158); fill-opacity: 0.5034; transform-origin: 0px 0px;" width="1" height="53" data-svg-origin="534 120"></rect>
    <rect transform="matrix(1,0,0,1,0,0)" x="567" y="120" style="fill: rgb(169, 163, 158); fill-opacity: 0.5034; transform-origin: 0px 0px;" width="1" height="53" data-svg-origin="567 120"></rect>
    <rect transform="matrix(1,0,0,1,0,0)" x="561" y="74" style="fill: rgb(169, 163, 158); fill-opacity: 0.5034; transform-origin: 0px 0px;" width="1" height="99" data-svg-origin="561 74"></rect>
    <rect transform="matrix(1,0,0,1,0,0)" x="550" y="66.2" style="fill: rgb(169, 163, 158); fill-opacity: 0.5034; transform-origin: 0px 0px;" width="1" height="106.8" data-svg-origin="550 66.19999694824219"></rect>
    <rect transform="matrix(1,0,0,1,0,0)" x="556" y="120" style="fill: rgb(169, 163, 158); fill-opacity: 0.5034; transform-origin: 0px 0px;" width="1" height="53" data-svg-origin="556 120"></rect>
    <rect transform="matrix(1,0,0,1,0,0)" x="572" y="60.7" style="fill: rgb(169, 163, 158); fill-opacity: 0.5034; transform-origin: 0px 0px;" width="1" height="112.3" data-svg-origin="572 60.70000076293945"></rect>
    <rect transform="matrix(1,0,0,1,0,0)" x="588" y="120" style="fill: rgb(169, 163, 158); fill-opacity: 0.5034; transform-origin: 0px 0px;" width="1" height="53" data-svg-origin="588 120"></rect>
    <rect transform="matrix(1,0,0,1,0,0)" x="583" y="74" style="fill: rgb(169, 163, 158); fill-opacity: 0.5034; transform-origin: 0px 0px;" width="1" height="99" data-svg-origin="583 74"></rect>
    <rect transform="matrix(1,0,0,1,0,0)" x="577" y="120" style="fill: rgb(169, 163, 158); fill-opacity: 0.5034; transform-origin: 0px 0px;" width="1" height="53" data-svg-origin="577 120"></rect>
    <rect transform="matrix(1,0,0,1,0,0)" x="539" y="74" style="fill: rgb(169, 163, 158); fill-opacity: 0.5034; transform-origin: 0px 0px;" width="1" height="99" data-svg-origin="539 74"></rect>
    <rect transform="matrix(1,0,0,1,0,0)" x="512" y="120" style="fill: rgb(169, 163, 158); fill-opacity: 0.5034; transform-origin: 0px 0px;" width="1" height="53" data-svg-origin="512 120"></rect>
    <rect transform="matrix(1,0,0,1,0,0)" x="517" y="74" style="fill: rgb(169, 163, 158); fill-opacity: 0.5034; transform-origin: 0px 0px;" width="1" height="99" data-svg-origin="517 74"></rect>
    <rect transform="matrix(1,0,0,1,0,0)" x="506" y="74" style="fill: rgb(169, 163, 158); fill-opacity: 0.5034; transform-origin: 0px 0px;" width="1" height="99" data-svg-origin="506 74"></rect>
    <rect transform="matrix(1,0,0,1,0,0)" x="523" y="120" style="fill: rgb(169, 163, 158); fill-opacity: 0.5034; transform-origin: 0px 0px;" width="1" height="53" data-svg-origin="523 120"></rect>
    <rect transform="matrix(1,0,0,1,0,0)" x="545" y="120" style="fill: rgb(169, 163, 158); fill-opacity: 0.5034; transform-origin: 0px 0px;" width="1" height="53" data-svg-origin="545 120"></rect>
    <rect transform="matrix(1,0,0,1,0,0)" x="528" y="69.8" style="fill: rgb(169, 163, 158); fill-opacity: 0.5034; transform-origin: 0px 0px;" width="1" height="103.2" data-svg-origin="528 69.80000305175781"></rect>
    <rect transform="matrix(1,0,0,1,0,0)" x="500" y="120" style="fill: rgb(169, 163, 158); fill-opacity: 0.5034; transform-origin: 0px 0px;" width="1" height="53" data-svg-origin="500 120"></rect>
    <rect transform="matrix(1,0,0,1,0,0)" x="594" y="55.9" style="fill: rgb(169, 163, 158); fill-opacity: 0.5034; transform-origin: 0px 0px;" width="1" height="117.1" data-svg-origin="594 55.900001525878906"></rect>
</svg>