<?xml version="1.0" encoding="UTF-8"?>
<svg xmlns="http://www.w3.org/2000/svg" xmlns:xlink="http://www.w3.org/1999/xlink" version="1.1" id="Layer_1" x="0px" y="0px" viewBox="0 0 181 60" style="enable-background:new 0 0 181 60;" xml:space="preserve">
<polyline id="Fill-1" style="fill:#fff;fill-rule:evenodd;clip-rule:evenodd;fill:#fff" points="40.4,1 39,1 39,33 56.5,33 57,31.6 40.4,32.6 40.4,1  "></polyline>
    <path id="Fill-2" style="fill-rule:evenodd;clip-rule:evenodd;fill:#fff" d="M69.8,55.6c0,1.9-1.3,3.3-3.1,3.3s-3.1-1.4-3.1-3.3v-5.9h-1.2  v5.9c0,2.6,1.8,4.4,4.2,4.4c2.5,0,4.2-1.8,4.2-4.4v-5.9h-1.2v5.9"></path>
    <path id="Fill-4" style="fill-rule:evenodd;clip-rule:evenodd;fill:#fff" d="M28.1,28.3c-2.6,3-6.2,4.5-10.4,4.5C8,32.9,1.5,26.2,1.5,16.2  c0-3.8,1.3-7.5,3.7-10.2c2.6-3,6.2-4.6,10.4-4.6c4.7,0,8.8,1.6,11.7,4.6s4.5,7.2,4.5,12.1C31.8,22,30.4,25.7,28.1,28.3z M16.6,0.5  c-4.5,0-8.8,1.9-11.9,5.3C1.7,8.9,0,13.3,0,17.7c0,4.5,1.7,8.6,4.8,11.6S12.1,34,16.6,34s8.8-1.9,11.9-5.2c3-3.2,4.7-7.6,4.7-11.9  c0-4.5-1.7-8.6-4.8-11.6C25.4,2.1,21.2,0.5,16.6,0.5L16.6,0.5z"></path>
    <path id="Fill-6" style="fill-rule:evenodd;clip-rule:evenodd;fill:#fff" d="M43.5,59h-2.3v-8h2.3c2.6,0,4.4,1.6,4.4,4  C47.8,57.3,46,59,43.5,59z M43.5,50H40v10h3.5c3.2,0,5.5-2.1,5.5-5S46.7,50,43.5,50L43.5,50z"></path>
    <polyline id="Fill-7" style="fill:#fff;fill-rule:evenodd;clip-rule:evenodd;" points="66.1,17.5 55.6,1 54,1 65.8,18 65.8,33 67.2,33  67.2,18.4 79,1 77.4,1 66.1,17.5 "></polyline>
    <path id="Fill-8" style="fill-rule:evenodd;clip-rule:evenodd;fill:#fff" d="M161.6,17.1l5.6-14.7l5.9,14.7H161.6z M168.1,1.1L168.1,1.1  L167.2,1L154,32.8V33h1.6l5.8-15.3h12l6.1,15.3h1.5L168.1,1.1L168.1,1.1z"></path>
    <polyline id="Fill-9" style="fill-rule:evenodd;clip-rule:evenodd;fill:#fff" points="90,57 86.2,50 85,50 85,60 86.2,60 86.2,52.4 90,59.4  93.8,52.4 93.8,60 95,60 95,50 93.8,50 90,57 "></polyline>
    <path id="Fill-10" style="fill-rule:evenodd;clip-rule:evenodd;fill:#fff" d="M123.3,17.2V1.4h5.6c7.3,0,10.5,3.4,10.5,9.1  c0,4.2-3,8.4-9.2,8.4C127.9,19,125.7,18.4,123.3,17.2z M138.1,16.7c1.8-1.7,2.9-4,2.9-6.5c0-5.4-4.2-9.2-10.2-9.2H122v32h1.4V18.2  c2.3,0.8,4.6,1.3,6.9,1.3C133.4,19.5,136.2,18.5,138.1,16.7L138.1,16.7z"></path>
    <polygon id="Fill-11" style="fill-rule:evenodd;fill:#fff;clip-rule:evenodd;fill:#fff" points="148,33 149.3,33 149.3,1 148,1 "></polygon>
    <path id="Fill-12" style="fill-rule:evenodd;clip-rule:evenodd;fill:#fff" d="M136,58.9c-2.1,0-3.9-2-3.9-4.4s1.8-4.4,3.9-4.4  c2.1,0,3.9,2,3.9,4.4S138.1,58.9,136,58.9z M136,49c-2.7,0-5,2.5-5,5.5s2.3,5.5,5,5.5s5-2.5,5-5.5S138.7,49,136,49L136,49z"></path>
    <path id="Fill-13" style="fill-rule:evenodd;clip-rule:evenodd;fill:#fff" d="M114.6,59h-3.5v-3.7h3.5c1.3,0,2.2,0.8,2.2,1.8  C116.8,58.2,115.9,59,114.6,59z M111.2,51h3.3c1.1,0,2,0.7,2,1.6s-0.8,1.6-2,1.6h-3.3V51z M116.1,54.7c0.9-0.5,1.5-1.1,1.5-2.2  c0-1.5-1.2-2.5-2.8-2.5H110v10h4.9c1.8,0,3.1-1.1,3.1-2.7C118,56.2,117.3,55.3,116.1,54.7L116.1,54.7z"></path>
    <polyline id="Fill-14" style="fill-rule:evenodd;clip-rule:evenodd;fill:#fff" points="111.7,33 113,33 113,1 112.1,1 97.9,30.6 83.9,1.1  83.9,1 83,1 83,33 84.5,33 83.6,3.4 97.5,32.9 97.5,33 98.3,33 111.7,3.2 111.7,33 "></polyline>
</svg>
