<svg width="182" height="50" viewBox="0 0 182 50" fill="none" xmlns="http://www.w3.org/2000/svg">
<line x1="51.7774" y1="33.2087" x2="181.997" y2="33.6184" stroke="#C6C6C6" stroke-width="0.5"/>
<line x1="0.229492" y1="33.2087" x2="35.9475" y2="33.2087" stroke="#C6C6C6" stroke-width="0.5"/>
<path d="M177.435 22.8157L176.807 21.6739V15.3287H177.435V22.8157ZM178.69 24.9859L178.063 23.9226V15.3287H178.69V24.9859ZM170.044 20.3927L170.671 21.5344V27.8796H170.044V20.3927ZM168.789 18.1352L169.416 19.2857V27.8796H168.789V18.1352ZM169.007 15.3287H169.739L177.008 27.8796H176.276L169.007 15.3287ZM170.488 15.3287H171.229L178.49 27.8796H177.74L170.488 15.3287ZM171.961 15.3287H172.694L179.318 26.7901V15.3287H179.945V27.8796H179.204L171.961 15.3287ZM168.161 16.4095V27.8796H167.534V15.3287H168.283L175.526 27.8796H174.803L168.161 16.4095Z" fill="#C6C6C6"/>
<path d="M157.441 19.8348C156.953 20.3229 156.708 20.9127 156.708 21.6042C156.708 22.2956 156.953 22.8883 157.441 23.3822C157.935 23.8703 158.527 24.1143 159.219 24.1143C159.91 24.1143 160.5 23.8703 160.988 23.3822C161.482 22.8883 161.729 22.2956 161.729 21.6042C161.729 20.9127 161.482 20.3229 160.988 19.8348C160.5 19.3409 159.91 19.094 159.219 19.094C158.527 19.094 157.935 19.3409 157.441 19.8348ZM156.996 23.8267C156.386 23.2108 156.081 22.4699 156.081 21.6042C156.081 20.7384 156.386 20.0004 156.996 19.3903C157.612 18.7744 158.353 18.4664 159.219 18.4664C160.084 18.4664 160.822 18.7744 161.433 19.3903C162.048 20.0004 162.356 20.7384 162.356 21.6042C162.356 22.4699 162.048 23.2108 161.433 23.8267C160.822 24.4368 160.084 24.7419 159.219 24.7419C158.353 24.7419 157.612 24.4368 156.996 23.8267ZM156.552 18.9458C155.819 19.6837 155.453 20.5699 155.453 21.6042C155.453 22.6384 155.819 23.5246 156.552 24.2625C157.29 25.0005 158.179 25.3694 159.219 25.3694C160.259 25.3694 161.145 25.0005 161.877 24.2625C162.615 23.5246 162.984 22.6384 162.984 21.6042C162.984 20.5699 162.615 19.6837 161.877 18.9458C161.145 18.2078 160.259 17.8389 159.219 17.8389C158.179 17.8389 157.29 18.2078 156.552 18.9458ZM155.41 23.8093C155.021 23.1352 154.826 22.4002 154.826 21.6042C154.826 20.8081 155.021 20.0731 155.41 19.399C155.805 18.725 156.34 18.1933 157.014 17.804C157.688 17.4089 158.423 17.2113 159.219 17.2113C160.015 17.2113 160.75 17.4089 161.424 17.804C162.098 18.1933 162.63 18.725 163.019 19.399C163.414 20.0731 163.612 20.8081 163.612 21.6042C163.612 22.4002 163.414 23.1352 163.019 23.8093C162.63 24.4833 162.098 25.0179 161.424 25.413C160.75 25.8023 160.015 25.997 159.219 25.997C158.423 25.997 157.688 25.8023 157.014 25.413C156.34 25.0179 155.805 24.4833 155.41 23.8093ZM154.591 19.6605C154.329 20.2764 154.198 20.9243 154.198 21.6042C154.198 22.284 154.329 22.9348 154.591 23.5565C154.858 24.1724 155.215 24.707 155.663 25.1602C156.116 25.6077 156.65 25.965 157.266 26.2323C157.888 26.4938 158.539 26.6245 159.219 26.6245C159.899 26.6245 160.546 26.4938 161.162 26.2323C161.784 25.965 162.319 25.6077 162.766 25.1602C163.219 24.707 163.577 24.1724 163.838 23.5565C164.105 22.9348 164.239 22.284 164.239 21.6042C164.239 20.9243 164.105 20.2764 163.838 19.6605C163.577 19.0388 163.219 18.5042 162.766 18.0568C162.319 17.6035 161.784 17.2462 161.162 16.9847C160.546 16.7174 159.899 16.5838 159.219 16.5838C158.539 16.5838 157.888 16.7174 157.266 16.9847C156.65 17.2462 156.116 17.6035 155.663 18.0568C155.215 18.5042 154.858 19.0388 154.591 19.6605ZM154.015 23.8006C153.719 23.1033 153.571 22.3712 153.571 21.6042C153.571 20.8371 153.719 20.105 154.015 19.4077C154.317 18.7105 154.718 18.112 155.218 17.6123C155.724 17.1067 156.325 16.7058 157.022 16.4095C157.72 16.1073 158.452 15.9562 159.219 15.9562C159.986 15.9562 160.718 16.1073 161.415 16.4095C162.112 16.7058 162.711 17.1067 163.211 17.6123C163.716 18.112 164.117 18.7105 164.413 19.4077C164.716 20.105 164.867 20.8371 164.867 21.6042C164.867 22.3712 164.716 23.1033 164.413 23.8006C164.117 24.4978 163.716 25.0992 163.211 25.6048C162.711 26.1045 162.112 26.5054 161.415 26.8076C160.718 27.1039 159.986 27.2521 159.219 27.2521C158.452 27.2521 157.72 27.1039 157.022 26.8076C156.325 26.5054 155.724 26.1045 155.218 25.6048C154.718 25.0992 154.317 24.4978 154.015 23.8006ZM153.44 19.1724C153.109 19.9452 152.943 20.7558 152.943 21.6042C152.943 22.4525 153.109 23.266 153.44 24.0446C153.771 24.8174 154.216 25.4856 154.774 26.0493C155.337 26.6071 156.005 27.0516 156.778 27.3828C157.557 27.714 158.37 27.8796 159.219 27.8796C160.067 27.8796 160.878 27.714 161.65 27.3828C162.429 27.0516 163.097 26.6071 163.655 26.0493C164.219 25.4856 164.666 24.8174 164.997 24.0446C165.329 23.266 165.494 22.4525 165.494 21.6042C165.494 20.7558 165.329 19.9452 164.997 19.1724C164.666 18.3938 164.219 17.7256 163.655 17.1677C163.097 16.6041 162.429 16.1567 161.65 15.8255C160.878 15.4943 160.067 15.3287 159.219 15.3287C158.37 15.3287 157.557 15.4943 156.778 15.8255C156.005 16.1567 155.337 16.6041 154.774 17.1677C154.216 17.7256 153.771 18.3938 153.44 19.1724ZM152.865 24.2887C152.499 23.4345 152.316 22.5397 152.316 21.6042C152.316 20.6686 152.499 19.7767 152.865 18.9284C153.231 18.0742 153.722 17.3392 154.338 16.7232C154.954 16.1073 155.686 15.6163 156.534 15.2502C157.388 14.8842 158.283 14.7011 159.219 14.7011C160.154 14.7011 161.046 14.8842 161.894 15.2502C162.749 15.6163 163.484 16.1073 164.1 16.7232C164.716 17.3392 165.207 18.0742 165.573 18.9284C165.939 19.7767 166.122 20.6686 166.122 21.6042C166.122 22.5397 165.939 23.4345 165.573 24.2887C165.207 25.137 164.716 25.8691 164.1 26.4851C163.484 27.101 162.749 27.592 161.894 27.9581C161.046 28.3241 160.154 28.5072 159.219 28.5072C158.283 28.5072 157.388 28.3241 156.534 27.9581C155.686 27.592 154.954 27.101 154.338 26.4851C153.722 25.8691 153.231 25.137 152.865 24.2887Z" fill="#C6C6C6"/>
<path d="M150.381 15.3287H151.008V27.8796H150.381V15.3287ZM149.126 15.3287H149.753V27.8796H149.126V15.3287ZM147.871 15.3287H148.498V27.8796H147.871V15.3287ZM146.615 15.3287H147.243V27.8796H146.615V15.3287Z" fill="#C6C6C6"/>
<path d="M138.327 18.8064H138.954V27.8796H138.327V18.8064ZM135.817 15.9563V15.3287H145.23V15.9563H135.817ZM135.817 17.2113V16.5838H145.23V17.2113H135.817ZM135.817 18.4664V17.8389H145.23V18.4664H135.817ZM142.092 18.8064H142.72V27.8796H142.092V18.8064ZM140.837 18.8064H141.464V27.8796H140.837V18.8064ZM139.582 18.8064H140.209V27.8796H139.582V18.8064Z" fill="#C6C6C6"/>
<path d="M130.16 21.6913C130.16 20.9475 129.93 20.3723 129.471 19.9656C129.012 19.5588 128.405 19.3554 127.65 19.3554C127.01 19.3554 126.461 19.5762 126.002 20.0178C125.543 20.4595 125.314 20.9882 125.314 21.6041C125.314 21.9528 125.36 22.2666 125.453 22.5455C125.546 22.8186 125.671 23.0481 125.828 23.234C125.991 23.4142 126.182 23.5652 126.403 23.6873C126.624 23.8035 126.854 23.8877 127.092 23.94C127.336 23.9923 127.594 24.0185 127.867 24.0185C128.53 24.0185 129.134 23.8558 129.68 23.5304V24.1579C129.117 24.4543 128.51 24.6024 127.859 24.6024C127.44 24.6024 127.045 24.5472 126.673 24.4368C126.307 24.3206 125.973 24.1492 125.671 23.9226C125.369 23.6902 125.128 23.3764 124.948 22.9813C124.773 22.5803 124.686 22.1213 124.686 21.6041C124.686 20.8023 124.968 20.1224 125.532 19.5646C126.095 19.0068 126.801 18.7279 127.65 18.7279C128.585 18.7279 129.34 18.9923 129.916 19.521C130.497 20.044 130.787 20.7674 130.787 21.6913V27.8796H130.16V21.6913ZM132.042 21.6913V27.8796H131.415V21.6913C131.415 20.5931 131.063 19.7215 130.36 19.0765C129.657 18.4257 128.754 18.1003 127.65 18.1003C126.627 18.1003 125.773 18.4403 125.087 19.1201C124.401 19.8 124.059 20.628 124.059 21.6041C124.059 22.1968 124.16 22.7285 124.364 23.1992C124.573 23.6698 124.855 24.0475 125.209 24.3322C125.564 24.6169 125.959 24.8348 126.394 24.9859C126.836 25.1312 127.301 25.2038 127.789 25.2038C128.451 25.2038 129.082 25.0498 129.68 24.7419V25.4043C129.053 25.6658 128.419 25.7965 127.78 25.7965C127.205 25.7965 126.659 25.7093 126.142 25.535C125.625 25.3549 125.163 25.0963 124.756 24.7593C124.349 24.4165 124.027 23.9749 123.788 23.4345C123.55 22.8883 123.431 22.2782 123.431 21.6041C123.431 20.4595 123.835 19.4862 124.643 18.6843C125.456 17.8766 126.458 17.4728 127.65 17.4728C128.486 17.4728 129.236 17.6442 129.898 17.987C130.561 18.3241 131.084 18.8151 131.467 19.46C131.851 20.105 132.042 20.8488 132.042 21.6913ZM133.298 21.6913V27.8796H132.67V21.6913C132.67 20.7326 132.449 19.8842 132.008 19.1463C131.572 18.4025 130.973 17.8331 130.212 17.4379C129.451 17.0428 128.597 16.8453 127.65 16.8453C126.749 16.8453 125.927 17.0602 125.183 17.4902C124.439 17.9144 123.855 18.4897 123.431 19.216C123.013 19.9423 122.804 20.7384 122.804 21.6041C122.804 22.3479 122.94 23.0277 123.213 23.6437C123.486 24.2538 123.852 24.7564 124.311 25.1515C124.776 25.5466 125.302 25.8546 125.889 26.0754C126.482 26.2904 127.1 26.3979 127.745 26.3979C128.402 26.3979 129.047 26.2614 129.68 25.9883V26.6245C129.018 26.8744 128.367 26.9993 127.728 26.9993C126.723 26.9993 125.799 26.7727 124.956 26.3195C124.114 25.8662 123.44 25.2242 122.934 24.3932C122.429 23.5623 122.176 22.6326 122.176 21.6041C122.176 20.872 122.315 20.1747 122.594 19.5123C122.879 18.8499 123.263 18.2776 123.745 17.7953C124.227 17.313 124.808 16.9295 125.488 16.6448C126.168 16.3601 126.888 16.2177 127.65 16.2177C128.713 16.2177 129.672 16.4443 130.526 16.8976C131.386 17.3508 132.063 17.9958 132.557 18.8325C133.051 19.6692 133.298 20.6222 133.298 21.6913ZM134.553 21.6913V27.8796H133.925V21.6913C133.925 20.5059 133.649 19.4484 133.097 18.5187C132.545 17.5832 131.793 16.8627 130.84 16.3572C129.887 15.8458 128.823 15.5902 127.65 15.5902C126.522 15.5902 125.491 15.8604 124.555 16.4007C123.62 16.9411 122.885 17.6733 122.35 18.5972C121.816 19.5152 121.548 20.5176 121.548 21.6041C121.548 22.3189 121.662 22.9987 121.888 23.6437C122.121 24.2828 122.435 24.8436 122.83 25.3258C123.231 25.8023 123.69 26.2149 124.207 26.5635C124.73 26.9121 125.29 27.1765 125.889 27.3567C126.493 27.5368 127.106 27.6268 127.728 27.6268C128.414 27.6268 129.064 27.4961 129.68 27.2346V27.8796C129.035 28.1062 128.373 28.2195 127.693 28.2195C126.99 28.2195 126.304 28.1207 125.636 27.9232C124.974 27.7256 124.358 27.4351 123.788 27.0516C123.225 26.6623 122.728 26.2062 122.298 25.6832C121.868 25.1544 121.531 24.5385 121.287 23.8354C121.043 23.1323 120.921 22.3886 120.921 21.6041C120.921 20.7035 121.089 19.8464 121.426 19.033C121.769 18.2137 122.234 17.5077 122.821 16.915C123.414 16.3165 124.128 15.8429 124.965 15.4943C125.808 15.1398 126.702 14.9626 127.65 14.9626C128.614 14.9626 129.521 15.1253 130.369 15.4507C131.217 15.7761 131.949 16.2293 132.565 16.8104C133.181 17.3856 133.666 18.0945 134.021 18.9371C134.375 19.7796 134.553 20.6977 134.553 21.6913Z" fill="#C6C6C6"/>
<path d="M110.148 24.1144V19.094C110.148 19.094 111.307 19.094 113.626 19.094C114.271 19.094 114.823 19.338 115.282 19.8261C115.746 20.3142 115.979 20.9011 115.979 21.5867C115.979 22.2956 115.749 22.8941 115.29 23.3822C114.831 23.8703 114.276 24.1144 113.626 24.1144H110.148ZM110.776 23.4868H113.626C114.096 23.4868 114.497 23.3038 114.828 22.9377C115.165 22.5716 115.334 22.1213 115.334 21.5867C115.334 21.0754 115.165 20.6367 114.828 20.2706C114.497 19.9046 114.096 19.7215 113.626 19.7215H110.776V23.4868ZM109.52 24.7419H113.626C114.451 24.7419 115.157 24.4368 115.744 23.8267C116.33 23.2108 116.624 22.4641 116.624 21.5867C116.624 20.7268 116.328 19.9917 115.735 19.3816C115.148 18.7715 114.445 18.4664 113.626 18.4664H109.52V24.7419ZM108.893 25.3694V17.8389H113.626C114.619 17.8389 115.473 18.2079 116.188 18.9458C116.909 19.6779 117.269 20.5583 117.269 21.5867C117.269 22.6385 116.912 23.5333 116.197 24.2712C115.482 25.0034 114.625 25.3694 113.626 25.3694H108.893ZM108.265 25.997H113.626C114.393 25.997 115.104 25.8023 115.761 25.413C116.418 25.0237 116.941 24.4891 117.33 23.8093C117.719 23.1295 117.914 22.3886 117.914 21.5867C117.914 20.8023 117.719 20.0731 117.33 19.399C116.941 18.725 116.415 18.1933 115.752 17.804C115.096 17.4089 114.387 17.2113 113.626 17.2113H108.265V25.997ZM107.638 26.6245V16.5838H113.626C114.503 16.5838 115.319 16.8075 116.075 17.2549C116.836 17.7023 117.44 18.3125 117.888 19.0853C118.335 19.8523 118.559 20.6861 118.559 21.5867C118.559 22.499 118.335 23.3444 117.888 24.1231C117.44 24.8959 116.836 25.506 116.075 25.9534C115.319 26.4008 114.503 26.6245 113.626 26.6245H107.638ZM107.01 27.2521H113.626C114.619 27.2521 115.543 27.0022 116.397 26.5025C117.251 25.997 117.931 25.3084 118.437 24.4368C118.948 23.5652 119.204 22.6152 119.204 21.5867C119.204 20.5757 118.948 19.6373 118.437 18.7715C117.931 17.8999 117.249 17.2142 116.389 16.7145C115.534 16.209 114.613 15.9563 113.626 15.9563H107.01V27.2521ZM113.626 27.8796H106.383V15.3287H113.626C114.73 15.3287 115.758 15.6105 116.711 16.1741C117.67 16.732 118.431 17.4932 118.995 18.4577C119.564 19.4165 119.849 20.4595 119.849 21.5867C119.849 22.4409 119.68 23.2573 119.343 24.0359C119.012 24.8145 118.565 25.4857 118.001 26.0493C117.443 26.6071 116.781 27.0516 116.014 27.3828C115.247 27.714 114.451 27.8796 113.626 27.8796Z" fill="#C6C6C6"/>
<path d="M102.234 22.8157L101.607 21.6739V15.3287H102.234V22.8157ZM103.489 24.9859L102.862 23.9226V15.3287H103.489V24.9859ZM94.8429 20.3927L95.4705 21.5344V27.8796H94.8429V20.3927ZM93.5879 18.1352L94.2154 19.2857V27.8796H93.5879V18.1352ZM93.8058 15.3287H94.5379L101.807 27.8796H101.075L93.8058 15.3287ZM95.2875 15.3287H96.0283L103.289 27.8796H102.539L95.2875 15.3287ZM96.7605 15.3287H97.4926L104.117 26.7901V15.3287H104.744V27.8796H104.003L96.7605 15.3287ZM92.9603 16.4095V27.8796H92.3328V15.3287H93.0823L100.325 27.8796H99.6018L92.9603 16.4095Z" fill="#C6C6C6"/>
<path d="M86.3623 22.3189V15.3287H86.9899V22.3189C86.9899 22.9813 86.7342 23.5507 86.2229 24.0272C85.7173 24.5037 85.1072 24.7419 84.3925 24.7419C83.6778 24.7419 83.0648 24.5037 82.5535 24.0272C82.0479 23.5507 81.7952 22.9813 81.7952 22.3189V15.3287H82.4227V22.3189C82.4227 22.8128 82.6145 23.2369 82.998 23.5914C83.3873 23.94 83.8521 24.1144 84.3925 24.1144C84.9329 24.1144 85.3949 23.94 85.7784 23.5914C86.1677 23.2369 86.3623 22.8128 86.3623 22.3189ZM87.6174 22.3189V15.3287H88.245V22.3189C88.245 23.3357 87.8673 24.2044 87.1119 24.9249C86.3565 25.6396 85.4501 25.997 84.3925 25.997C83.335 25.997 82.4285 25.6396 81.6732 24.9249C80.9178 24.2044 80.5401 23.3357 80.5401 22.3189V15.3287H81.1676V22.3189C81.1676 23.1614 81.4814 23.8819 82.109 24.4804C82.7423 25.0731 83.5035 25.3694 84.3925 25.3694C85.2757 25.3694 86.034 25.0731 86.6674 24.4804C87.3007 23.8819 87.6174 23.1614 87.6174 22.3189ZM88.8725 22.3189V15.3287H89.5001V22.3189C89.5001 23.2079 89.2705 24.033 88.8115 24.7942C88.3525 25.5496 87.7307 26.1481 86.9463 26.5897C86.1619 27.0313 85.3106 27.2521 84.3925 27.2521C83.4745 27.2521 82.6232 27.0313 81.8388 26.5897C81.0543 26.1481 80.4326 25.5496 79.9736 24.7942C79.5145 24.033 79.285 23.2079 79.285 22.3189V15.3287H79.9125V22.3189C79.9125 23.0917 80.113 23.8093 80.5139 24.4717C80.9149 25.1341 81.4582 25.66 82.1438 26.0493C82.8353 26.4328 83.5849 26.6245 84.3925 26.6245C85.2002 26.6245 85.9469 26.4328 86.6325 26.0493C87.324 25.66 87.8702 25.1341 88.2711 24.4717C88.672 23.8093 88.8725 23.0917 88.8725 22.3189ZM90.1276 22.3189V15.3287H90.7552V22.3189C90.7552 23.1556 90.5866 23.9575 90.2496 24.7245C89.9126 25.4857 89.4594 26.1423 88.8899 26.6943C88.3205 27.2463 87.6436 27.685 86.8591 28.0104C86.0747 28.3416 85.2525 28.5072 84.3925 28.5072C83.5326 28.5072 82.7104 28.3416 81.9259 28.0104C81.1415 27.685 80.4646 27.2463 79.8951 26.6943C79.3257 26.1423 78.8724 25.4857 78.5354 24.7245C78.1984 23.9575 78.0299 23.1556 78.0299 22.3189V15.3287H78.6575V22.3189C78.6575 23.3183 78.9131 24.2451 79.4245 25.0993C79.9416 25.9534 80.6389 26.6303 81.5163 27.1301C82.3995 27.6298 83.3582 27.8796 84.3925 27.8796C85.4268 27.8796 86.3827 27.6298 87.2601 27.1301C88.1433 26.6303 88.8406 25.9534 89.3519 25.0993C89.869 24.2451 90.1276 23.3183 90.1276 22.3189Z" fill="#C6C6C6"/>
<path d="M68.0328 19.8348C67.5447 20.3229 67.3007 20.9127 67.3007 21.6042C67.3007 22.2956 67.5447 22.8883 68.0328 23.3822C68.5267 23.8703 69.1194 24.1143 69.8108 24.1143C70.5023 24.1143 71.0921 23.8703 71.5802 23.3822C72.0741 22.8883 72.321 22.2956 72.321 21.6042C72.321 20.9127 72.0741 20.3229 71.5802 19.8348C71.0921 19.3409 70.5023 19.094 69.8108 19.094C69.1194 19.094 68.5267 19.3409 68.0328 19.8348ZM67.5883 23.8267C66.9782 23.2108 66.6731 22.4699 66.6731 21.6042C66.6731 20.7384 66.9782 20.0004 67.5883 19.3903C68.2042 18.7744 68.9451 18.4664 69.8108 18.4664C70.6766 18.4664 71.4146 18.7744 72.0247 19.3903C72.6406 20.0004 72.9486 20.7384 72.9486 21.6042C72.9486 22.4699 72.6406 23.2108 72.0247 23.8267C71.4146 24.4368 70.6766 24.7419 69.8108 24.7419C68.9451 24.7419 68.2042 24.4368 67.5883 23.8267ZM67.1438 18.9458C66.4116 19.6837 66.0456 20.5699 66.0456 21.6042C66.0456 22.6384 66.4116 23.5246 67.1438 24.2625C67.8817 25.0005 68.7707 25.3694 69.8108 25.3694C70.8509 25.3694 71.7371 25.0005 72.4692 24.2625C73.2071 23.5246 73.5761 22.6384 73.5761 21.6042C73.5761 20.5699 73.2071 19.6837 72.4692 18.9458C71.7371 18.2078 70.8509 17.8389 69.8108 17.8389C68.7707 17.8389 67.8817 18.2078 67.1438 18.9458ZM66.002 23.8093C65.6127 23.1352 65.418 22.4002 65.418 21.6042C65.418 20.8081 65.6127 20.0731 66.002 19.399C66.3971 18.725 66.9317 18.1933 67.6057 17.804C68.2797 17.4089 69.0148 17.2113 69.8108 17.2113C70.6069 17.2113 71.3419 17.4089 72.016 17.804C72.69 18.1933 73.2217 18.725 73.611 19.399C74.0061 20.0731 74.2037 20.8081 74.2037 21.6042C74.2037 22.4002 74.0061 23.1352 73.611 23.8093C73.2217 24.4833 72.69 25.0179 72.016 25.413C71.3419 25.8023 70.6069 25.997 69.8108 25.997C69.0148 25.997 68.2797 25.8023 67.6057 25.413C66.9317 25.0179 66.3971 24.4833 66.002 23.8093ZM65.1827 19.6605C64.9212 20.2764 64.7905 20.9243 64.7905 21.6042C64.7905 22.284 64.9212 22.9348 65.1827 23.5565C65.45 24.1724 65.8073 24.707 66.2548 25.1602C66.708 25.6077 67.2426 25.965 67.8585 26.2323C68.4802 26.4938 69.131 26.6245 69.8108 26.6245C70.4907 26.6245 71.1386 26.4938 71.7545 26.2323C72.3762 25.965 72.9108 25.6077 73.3582 25.1602C73.8115 24.707 74.1688 24.1724 74.4303 23.5565C74.6976 22.9348 74.8312 22.284 74.8312 21.6042C74.8312 20.9243 74.6976 20.2764 74.4303 19.6605C74.1688 19.0388 73.8115 18.5042 73.3582 18.0568C72.9108 17.6035 72.3762 17.2462 71.7545 16.9847C71.1386 16.7174 70.4907 16.5838 69.8108 16.5838C69.131 16.5838 68.4802 16.7174 67.8585 16.9847C67.2426 17.2462 66.708 17.6035 66.2548 18.0568C65.8073 18.5042 65.45 19.0388 65.1827 19.6605ZM64.6074 23.8006C64.3111 23.1033 64.1629 22.3712 64.1629 21.6042C64.1629 20.8371 64.3111 20.105 64.6074 19.4077C64.9096 18.7105 65.3105 18.112 65.8102 17.6123C66.3158 17.1067 66.9172 16.7058 67.6144 16.4095C68.3117 16.1073 69.0438 15.9562 69.8108 15.9562C70.5778 15.9562 71.31 16.1073 72.0073 16.4095C72.7045 16.7058 73.303 17.1067 73.8027 17.6123C74.3083 18.112 74.7092 18.7105 75.0055 19.4077C75.3077 20.105 75.4588 20.8371 75.4588 21.6042C75.4588 22.3712 75.3077 23.1033 75.0055 23.8006C74.7092 24.4978 74.3083 25.0992 73.8027 25.6048C73.303 26.1045 72.7045 26.5054 72.0073 26.8076C71.31 27.1039 70.5778 27.2521 69.8108 27.2521C69.0438 27.2521 68.3117 27.1039 67.6144 26.8076C66.9172 26.5054 66.3158 26.1045 65.8102 25.6048C65.3105 25.0992 64.9096 24.4978 64.6074 23.8006ZM64.0322 19.1724C63.701 19.9452 63.5354 20.7558 63.5354 21.6042C63.5354 22.4525 63.701 23.266 64.0322 24.0446C64.3634 24.8174 64.8079 25.4856 65.3657 26.0493C65.9294 26.6071 66.5976 27.0516 67.3704 27.3828C68.149 27.714 68.9625 27.8796 69.8108 27.8796C70.6592 27.8796 71.4698 27.714 72.2426 27.3828C73.0212 27.0516 73.6894 26.6071 74.2472 26.0493C74.8109 25.4856 75.2583 24.8174 75.5895 24.0446C75.9207 23.266 76.0863 22.4525 76.0863 21.6042C76.0863 20.7558 75.9207 19.9452 75.5895 19.1724C75.2583 18.3938 74.8109 17.7256 74.2472 17.1677C73.6894 16.6041 73.0212 16.1567 72.2426 15.8255C71.4698 15.4943 70.6592 15.3287 69.8108 15.3287C68.9625 15.3287 68.149 15.4943 67.3704 15.8255C66.5976 16.1567 65.9294 16.6041 65.3657 17.1677C64.8079 17.7256 64.3634 18.3938 64.0322 19.1724ZM63.4569 24.2887C63.0909 23.4345 62.9078 22.5397 62.9078 21.6042C62.9078 20.6686 63.0909 19.7767 63.4569 18.9284C63.823 18.0742 64.314 17.3392 64.9299 16.7232C65.5459 16.1073 66.278 15.6163 67.1263 15.2502C67.9805 14.8842 68.8753 14.7011 69.8108 14.7011C70.7464 14.7011 71.6383 14.8842 72.4866 15.2502C73.3408 15.6163 74.0758 16.1073 74.6918 16.7232C75.3077 17.3392 75.7987 18.0742 76.1648 18.9284C76.5308 19.7767 76.7139 20.6686 76.7139 21.6042C76.7139 22.5397 76.5308 23.4345 76.1648 24.2887C75.7987 25.137 75.3077 25.8691 74.6918 26.4851C74.0758 27.101 73.3408 27.592 72.4866 27.9581C71.6383 28.3241 70.7464 28.5072 69.8108 28.5072C68.8753 28.5072 67.9805 28.3241 67.1263 27.9581C66.278 27.592 65.5459 27.101 64.9299 26.4851C64.314 25.8691 63.823 25.137 63.4569 24.2887Z" fill="#C6C6C6"/>
<path d="M55.4296 27.8796H54.802V13.446H61.7486V14.0736H55.4296V14.7011H61.7486V15.3287H55.4296V15.9562H61.7486V16.5838H55.4296V19.7215H61.4523V20.3491H55.4296V20.9766H61.4523V21.6041H55.4296V22.2317H61.4523V22.8592H55.4296V27.8796ZM54.1745 27.8796H53.5469V13.446H54.1745V27.8796ZM52.9194 27.8796H52.2918V13.446H52.9194V27.8796ZM51.6643 27.8796H51.0367V13.446H51.6643V27.8796Z" fill="#C6C6C6"/>
<path d="M36.5004 0.00543213H51.7766V1.86471L46.7013 3.02048V23.7238C46.7013 30.0889 46.584 33.8577 46.3495 35.0302C46.115 36.2027 45.847 37.3752 45.5455 38.5477C45.244 39.7538 44.8588 40.7253 44.3898 41.4623C43.9542 42.1993 43.4182 43.0536 42.7817 44.0251C41.7767 45.5326 39.9677 47.4421 37.3547 49.7537L35.9476 48.8994C37.8237 46.4539 39.0297 44.5611 39.5657 43.2211C40.1017 41.881 40.4702 40.8425 40.6712 40.1055C40.9057 39.3685 41.0732 38.33 41.1737 36.99C41.3077 35.2479 41.3747 32.6684 41.3747 29.2514V3.02048L36.5004 1.86471V0.00543213Z" fill="#C6C6C6"/>
<path d="M28.6873 28.1934H28.0597V15.6425H28.6873V28.1934ZM27.4322 28.1934H26.8047V15.6425H27.4322V28.1934ZM26.1771 28.1934H25.5496V15.6425H26.1771V28.1934ZM29.9424 25.0557H35.9476V25.6832H29.9424V26.3108H35.9476V26.9383H29.9424V27.5659H35.9476V28.1934H29.3148V15.6425H35.9476V16.27H29.9424V16.8976H35.9476V17.5251H29.9424V18.1527H35.9476V18.7802H29.9424V20.3404H35.599V20.9679H29.9424V21.5955H35.599V22.223H29.9424V22.8505H35.599V23.4781H29.9424V25.0557Z" fill="#C6C6C6"/>
<path d="M23.4534 15.6425H24.081V28.1934H23.4534V15.6425ZM10.8938 15.6425H11.5213V28.1934H10.8938V15.6425ZM22.1983 15.6425H22.8259V28.1934H22.1983V15.6425ZM20.9432 15.6425H21.5708V28.1934H20.9432V15.6425ZM19.6882 15.6425H20.3157V28.1934H19.6882V23.173H15.2866V28.1934H14.6591V15.6425H15.2866V20.0353H19.6882V15.6425ZM13.404 15.6425H14.0315V28.1934H13.404V15.6425ZM12.1489 15.6425H12.7764V28.1934H12.1489V15.6425ZM19.6882 22.5455V21.9179H15.2866V22.5455H19.6882ZM19.6882 21.2904V20.6629H15.2866V21.2904H19.6882Z" fill="#C6C6C6"/>
<path d="M0.229492 14.3874V13.7598H9.64268V14.3874H0.229492ZM0.229492 15.6425V15.0149H9.64268V15.6425H0.229492ZM0.229492 16.8976V16.27H9.64268V16.8976H7.1325V28.1934H6.50495V16.8976H5.8774V28.1934H5.24986V16.8976H4.62231V28.1934H3.99477V16.8976H3.36722V28.1934H2.73968V16.8976H0.229492Z" fill="#C6C6C6"/>
<path d="M133.507 42.9466V40.7066L131.291 37.4506H132.067L133.835 40.1146L135.619 37.4506H136.371L134.163 40.7066V42.9466H133.507Z" fill="#C6C6C6"/>
<path d="M128.396 42.9466V38.0426H126.548V37.4506H130.868V38.0426H129.02V42.9466H128.396Z" fill="#C6C6C6"/>
<path d="M125.009 42.9466V37.4506H125.633V42.9466H125.009Z" fill="#C6C6C6"/>
<path d="M122.252 43.0426C121.489 43.0426 120.828 42.7626 120.268 42.2026C119.713 41.6372 119.436 40.9679 119.436 40.1946C119.436 39.4212 119.713 38.7546 120.268 38.1946C120.828 37.6346 121.489 37.3546 122.252 37.3546C123.02 37.3546 123.678 37.6346 124.228 38.1946L123.804 38.6266C123.366 38.1626 122.849 37.9306 122.252 37.9306C121.66 37.9306 121.148 38.1546 120.716 38.6026C120.284 39.0506 120.068 39.5812 120.068 40.1946C120.068 40.8079 120.284 41.3412 120.716 41.7946C121.148 42.2426 121.66 42.4666 122.252 42.4666C122.849 42.4666 123.366 42.2346 123.804 41.7706L124.228 42.2026C123.668 42.7626 123.009 43.0426 122.252 43.0426Z" fill="#C6C6C6"/>
<path d="M112.314 42.9466V37.4506H112.938V40.4906L115.722 37.4506H116.546L114.234 39.9626L116.698 42.9466H115.89L113.802 40.3866L112.938 41.2986V42.9466H112.314Z" fill="#C6C6C6"/>
<path d="M111.343 39.2106C111.343 39.6372 111.204 40.0052 110.927 40.3146C110.65 40.6186 110.29 40.8186 109.847 40.9146L111.271 42.9466H110.559L109.167 40.9706H107.711V42.9466H107.087V37.4506H109.319C109.895 37.4506 110.375 37.6159 110.759 37.9466C111.148 38.2772 111.343 38.6986 111.343 39.2106ZM107.711 38.0426V40.3786H109.207C109.66 40.3786 110.023 40.2746 110.295 40.0666C110.572 39.8586 110.711 39.5732 110.711 39.2106C110.711 38.8479 110.572 38.5626 110.295 38.3546C110.023 38.1466 109.66 38.0426 109.207 38.0426H107.711Z" fill="#C6C6C6"/>
<path d="M105.29 42.2026C104.735 42.7626 104.077 43.0426 103.314 43.0426C102.551 43.0426 101.89 42.7626 101.33 42.2026C100.775 41.6372 100.498 40.9679 100.498 40.1946C100.498 39.4212 100.775 38.7546 101.33 38.1946C101.89 37.6346 102.551 37.3546 103.314 37.3546C104.077 37.3546 104.735 37.6346 105.29 38.1946C105.845 38.7546 106.122 39.4212 106.122 40.1946C106.122 40.9679 105.845 41.6372 105.29 42.2026ZM101.778 41.7946C102.21 42.2426 102.722 42.4666 103.314 42.4666C103.906 42.4666 104.415 42.2426 104.842 41.7946C105.274 41.3466 105.49 40.8132 105.49 40.1946C105.49 39.5812 105.274 39.0506 104.842 38.6026C104.415 38.1546 103.906 37.9306 103.314 37.9306C102.722 37.9306 102.21 38.1546 101.778 38.6026C101.346 39.0506 101.13 39.5812 101.13 40.1946C101.13 40.8079 101.346 41.3412 101.778 41.7946Z" fill="#C6C6C6"/>
<path d="M97.1547 42.9466V40.7066L94.9387 37.4506H95.7147L97.4827 40.1146L99.2667 37.4506H100.019L97.8107 40.7066V42.9466H97.1547Z" fill="#C6C6C6"/>
<path d="M86.162 42.9466L84.282 37.4506H84.986L86.506 41.8986L87.962 37.4506H88.658L90.114 41.8986L91.634 37.4506H92.338L90.458 42.9466H89.842L88.314 38.2666L86.778 42.9466H86.162Z" fill="#C6C6C6"/>
<path d="M83.6264 38.0426H80.3144V39.8506H83.2984V40.4426H80.3144V42.3546H83.6264V42.9466H79.6824V37.4506H83.6264V38.0426Z" fill="#C6C6C6"/>
<path d="M73.7261 42.9466V37.4506H74.3501L77.7581 41.9226V37.4506H78.3821V42.9466H77.7581L74.3501 38.4746V42.9466H73.7261Z" fill="#C6C6C6"/>
</svg>
