<svg width="183" height="52" viewBox="0 0 183 52" fill="none" xmlns="http://www.w3.org/2000/svg">
<path d="M134.362 39.5924V37.3524L132.146 34.0964H132.922L134.69 36.7604L136.474 34.0964H137.226L135.018 37.3524V39.5924H134.362Z" fill="#C6C6C6"/>
<path d="M129.251 39.5924V34.6884H127.403V34.0964H131.723V34.6884H129.875V39.5924H129.251Z" fill="#C6C6C6"/>
<path d="M125.864 39.5924V34.0964H126.488V39.5924H125.864Z" fill="#C6C6C6"/>
<path d="M123.107 39.6884C122.344 39.6884 121.683 39.4084 121.123 38.8484C120.568 38.2831 120.291 37.6138 120.291 36.8404C120.291 36.0671 120.568 35.4004 121.123 34.8404C121.683 34.2804 122.344 34.0004 123.107 34.0004C123.875 34.0004 124.533 34.2804 125.083 34.8404L124.659 35.2724C124.221 34.8084 123.704 34.5764 123.107 34.5764C122.515 34.5764 122.003 34.8004 121.571 35.2484C121.139 35.6964 120.923 36.2271 120.923 36.8404C120.923 37.4538 121.139 37.9871 121.571 38.4404C122.003 38.8884 122.515 39.1124 123.107 39.1124C123.704 39.1124 124.221 38.8804 124.659 38.4164L125.083 38.8484C124.523 39.4084 123.864 39.6884 123.107 39.6884Z" fill="#C6C6C6"/>
<path d="M113.169 39.5924V34.0964H113.793V37.1364L116.577 34.0964H117.401L115.089 36.6084L117.553 39.5924H116.745L114.657 37.0324L113.793 37.9444V39.5924H113.169Z" fill="#C6C6C6"/>
<path d="M112.198 35.8564C112.198 36.2831 112.059 36.6511 111.782 36.9604C111.505 37.2644 111.145 37.4644 110.702 37.5604L112.126 39.5924H111.414L110.022 37.6164H108.566V39.5924H107.942V34.0964H110.174C110.75 34.0964 111.23 34.2618 111.614 34.5924C112.003 34.9231 112.198 35.3444 112.198 35.8564ZM108.566 34.6884V37.0244H110.062C110.515 37.0244 110.878 36.9204 111.15 36.7124C111.427 36.5044 111.566 36.2191 111.566 35.8564C111.566 35.4938 111.427 35.2084 111.15 35.0004C110.878 34.7924 110.515 34.6884 110.062 34.6884H108.566Z" fill="#C6C6C6"/>
<path d="M106.145 38.8484C105.59 39.4084 104.931 39.6884 104.169 39.6884C103.406 39.6884 102.745 39.4084 102.185 38.8484C101.63 38.2831 101.353 37.6138 101.353 36.8404C101.353 36.0671 101.63 35.4004 102.185 34.8404C102.745 34.2804 103.406 34.0004 104.169 34.0004C104.931 34.0004 105.59 34.2804 106.145 34.8404C106.699 35.4004 106.977 36.0671 106.977 36.8404C106.977 37.6138 106.699 38.2831 106.145 38.8484ZM102.633 38.4404C103.065 38.8884 103.577 39.1124 104.169 39.1124C104.761 39.1124 105.27 38.8884 105.697 38.4404C106.129 37.9924 106.345 37.4591 106.345 36.8404C106.345 36.2271 106.129 35.6964 105.697 35.2484C105.27 34.8004 104.761 34.5764 104.169 34.5764C103.577 34.5764 103.065 34.8004 102.633 35.2484C102.201 35.6964 101.985 36.2271 101.985 36.8404C101.985 37.4538 102.201 37.9871 102.633 38.4404Z" fill="#C6C6C6"/>
<path d="M98.0096 39.5924V37.3524L95.7936 34.0964H96.5696L98.3376 36.7604L100.122 34.0964H100.874L98.6656 37.3524V39.5924H98.0096Z" fill="#C6C6C6"/>
<path d="M87.0168 39.5924L85.1368 34.0964H85.8408L87.3608 38.5444L88.8168 34.0964H89.5128L90.9688 38.5444L92.4888 34.0964H93.1928L91.3128 39.5924H90.6968L89.1688 34.9124L87.6328 39.5924H87.0168Z" fill="#C6C6C6"/>
<path d="M84.4812 34.6884H81.1692V36.4964H84.1532V37.0884H81.1692V39.0004H84.4812V39.5924H80.5372V34.0964H84.4812V34.6884Z" fill="#C6C6C6"/>
<path d="M74.5809 39.5924V34.0964H75.2049L78.6129 38.5684V34.0964H79.2369V39.5924H78.6129L75.2049 35.1204V39.5924H74.5809Z" fill="#C6C6C6"/>
<path d="M170.092 25.7711V12.8165H171.059V25.7711H170.092ZM180.855 25.7711V12.8165H181.822V25.7711H180.855ZM178.728 22.1618L173.186 14.46V16.4257L178.728 24.1276V22.1618ZM172.219 25.7711V12.8165H173.186L178.728 20.5183V12.8165H179.695V25.7711H178.728L173.186 18.0692V25.7711H172.219Z" fill="#C6C6C6"/>
<path d="M166.865 19.2938C166.865 18.1767 166.596 17.1884 166.059 16.3291C165.544 15.4483 164.824 14.75 163.9 14.2344C162.998 13.7188 161.977 13.461 160.839 13.461C159.7 13.461 158.669 13.7188 157.745 14.2344C156.843 14.75 156.123 15.4483 155.586 16.3291C155.07 17.1884 154.812 18.1767 154.812 19.2938C154.812 20.3895 155.07 21.3777 155.586 22.2586C156.123 23.1394 156.843 23.8376 157.745 24.3532C158.669 24.8688 159.7 25.1266 160.839 25.1266C161.977 25.1266 162.998 24.8688 163.9 24.3532C164.824 23.8376 165.544 23.1394 166.059 22.2586C166.596 21.3777 166.865 20.3895 166.865 19.2938ZM164.738 19.2938C164.738 18.2196 164.362 17.3388 163.61 16.6513C162.88 15.9424 161.956 15.5879 160.839 15.5879C159.721 15.5879 158.787 15.9424 158.035 16.6513C157.305 17.3388 156.939 18.2196 156.939 19.2938C156.939 20.3465 157.305 21.2274 158.035 21.9363C158.787 22.6453 159.721 22.9998 160.839 22.9998C161.956 22.9998 162.88 22.6453 163.61 21.9363C164.362 21.2274 164.738 20.3465 164.738 19.2938ZM160.839 23.9665C159.915 23.9665 159.088 23.7624 158.357 23.3542C157.627 22.946 157.047 22.3875 156.617 21.6785C156.187 20.9696 155.973 20.1747 155.973 19.2938C155.973 18.413 156.187 17.6181 156.617 16.9091C157.047 16.2002 157.627 15.6416 158.357 15.2334C159.088 14.8252 159.915 14.6211 160.839 14.6211C161.762 14.6211 162.59 14.8252 163.32 15.2334C164.05 15.6416 164.63 16.2002 165.06 16.9091C165.49 17.6181 165.705 18.413 165.705 19.2938C165.705 20.1747 165.49 20.9696 165.06 21.6785C164.63 22.3875 164.05 22.946 163.32 23.3542C162.59 23.7624 161.762 23.9665 160.839 23.9665ZM160.839 26.0934C159.528 26.0934 158.347 25.7926 157.294 25.1911C156.241 24.5895 155.403 23.7732 154.78 22.742C154.157 21.7107 153.846 20.5614 153.846 19.2938C153.846 18.0048 154.157 16.8554 154.78 15.8457C155.403 14.8145 156.241 13.9981 157.294 13.3966C158.347 12.795 159.528 12.4943 160.839 12.4943C162.149 12.4943 163.331 12.795 164.383 13.3966C165.436 13.9981 166.274 14.8145 166.897 15.8457C167.52 16.8554 167.832 18.0048 167.832 19.2938C167.832 20.5614 167.52 21.7107 166.897 22.742C166.274 23.7732 165.436 24.5895 164.383 25.1911C163.331 25.7926 162.149 26.0934 160.839 26.0934Z" fill="#C6C6C6"/>
<path d="M150.63 25.7711V12.8165H151.597V25.7711H150.63ZM148.503 25.7711V12.8165H149.47V25.7711H148.503Z" fill="#C6C6C6"/>
<path d="M136.302 13.7832V12.8165H146.904V13.7832H136.302ZM140.04 25.7711V15.9101H136.302V14.9433H146.904V15.9101H143.134V25.7711H142.167V15.9101H141.007V25.7711H140.04Z" fill="#C6C6C6"/>
<path d="M126.505 25.7711L131.209 12.8165H132.241L136.946 25.7711H135.914L131.725 14.2344L131.113 15.9101L134.69 25.7711H133.659L133.111 24.2243H128.084L127.536 25.7711H126.505ZM124.249 25.7711L128.954 12.8165H129.985L125.28 25.7711H124.249ZM129.211 21.1306H131.983L130.597 17.328L129.211 21.1306ZM128.438 23.2575H132.756L132.337 22.0974H128.857L128.438 23.2575Z" fill="#C6C6C6"/>
<path d="M113.149 25.7711V12.8165H116.372C117.725 12.838 118.918 13.128 119.949 13.6866C120.98 14.2451 121.786 15.0078 122.366 15.9746C122.967 16.9413 123.268 18.0477 123.268 19.2938C123.268 20.5398 122.967 21.657 122.366 22.6452C121.786 23.612 120.969 24.3747 119.917 24.9332C118.885 25.4918 117.704 25.7711 116.372 25.7711H113.149ZM111.022 25.7711V12.8165H111.989V25.7711H111.022ZM116.275 13.7832H114.116V14.9433H116.372C117.79 14.9648 118.939 15.373 119.82 16.1679C120.701 16.9628 121.141 18.0048 121.141 19.2938C121.141 20.6043 120.69 21.657 119.788 22.4519C118.907 23.2468 117.768 23.6442 116.372 23.6442H114.116V24.8043H116.275C117.478 24.8043 118.531 24.5787 119.433 24.1276C120.336 23.655 121.034 22.9997 121.528 22.1618C122.044 21.324 122.301 20.368 122.301 19.2938C122.301 18.1981 122.044 17.2421 121.528 16.4257C121.034 15.5879 120.336 14.9433 119.433 14.4922C118.531 14.0196 117.478 13.7832 116.275 13.7832ZM116.275 15.9101H114.116V22.6774H116.275C117.478 22.6774 118.424 22.3767 119.111 21.7751C119.82 21.1736 120.174 20.3465 120.174 19.2938C120.174 18.2411 119.82 17.414 119.111 16.8124C118.424 16.2109 117.478 15.9101 116.275 15.9101Z" fill="#C6C6C6"/>
<path d="M96.7035 25.7711V12.8165H97.6703V25.7711H96.7035ZM107.467 25.7711V12.8165H108.434V25.7711H107.467ZM105.34 22.1618L99.7971 14.46V16.4257L105.34 24.1276V22.1618ZM98.8304 25.7711V12.8165H99.7971L105.34 20.5183V12.8165H106.307V25.7711H105.34L99.7971 18.0692V25.7711H98.8304Z" fill="#C6C6C6"/>
<path d="M83.8009 20.9373V12.8165H84.7677V20.905C84.7677 22.28 85.1759 23.3327 85.9922 24.0631C86.8301 24.7721 87.8183 25.1266 88.957 25.1266C90.0956 25.1266 91.0731 24.7721 91.8895 24.0631C92.7273 23.3327 93.1463 22.28 93.1463 20.905V12.8165H94.113V20.9373C94.0916 22.0329 93.8445 22.9675 93.3719 23.7409C92.9207 24.4928 92.3084 25.0729 91.535 25.4811C90.7616 25.8892 89.9023 26.0933 88.957 26.0933C88.0117 26.0933 87.1416 25.8892 86.3467 25.4811C85.5733 25.0729 84.9503 24.4821 84.4776 23.7087C84.0265 22.9353 83.8009 22.0115 83.8009 20.9373ZM85.9278 20.9373V12.8165H86.8945V20.905C86.8945 21.6355 87.0986 22.1726 87.5068 22.5163C87.915 22.8386 88.3984 22.9997 88.957 22.9997C89.5155 22.9997 89.9989 22.8386 90.4071 22.5163C90.8153 22.1726 91.0194 21.6355 91.0194 20.905V12.8165H91.9862V20.9373C91.9647 21.947 91.6532 22.7097 91.0516 23.2253C90.4716 23.7194 89.7734 23.9665 88.957 23.9665C88.1406 23.9665 87.4316 23.7087 86.8301 23.1931C86.2286 22.6774 85.9278 21.9255 85.9278 20.9373Z" fill="#C6C6C6"/>
<path d="M80.5738 19.2938C80.5738 18.1767 80.3052 17.1884 79.7681 16.3291C79.2525 15.4483 78.5328 14.75 77.609 14.2344C76.7067 13.7188 75.6862 13.461 74.5476 13.461C73.409 13.461 72.3778 13.7188 71.454 14.2344C70.5517 14.75 69.832 15.4483 69.2949 16.3291C68.7793 17.1884 68.5215 18.1767 68.5215 19.2938C68.5215 20.3895 68.7793 21.3777 69.2949 22.2586C69.832 23.1394 70.5517 23.8376 71.454 24.3532C72.3778 24.8688 73.409 25.1266 74.5476 25.1266C75.6862 25.1266 76.7067 24.8688 77.609 24.3532C78.5328 23.8376 79.2525 23.1394 79.7681 22.2586C80.3052 21.3777 80.5738 20.3895 80.5738 19.2938ZM78.4469 19.2938C78.4469 18.2196 78.0709 17.3388 77.319 16.6513C76.5886 15.9424 75.6648 15.5879 74.5476 15.5879C73.4305 15.5879 72.4959 15.9424 71.744 16.6513C71.0135 17.3388 70.6483 18.2196 70.6483 19.2938C70.6483 20.3465 71.0135 21.2274 71.744 21.9363C72.4959 22.6453 73.4305 22.9998 74.5476 22.9998C75.6648 22.9998 76.5886 22.6453 77.319 21.9363C78.0709 21.2274 78.4469 20.3465 78.4469 19.2938ZM74.5476 23.9665C73.6238 23.9665 72.7967 23.7624 72.0662 23.3542C71.3358 22.946 70.7557 22.3875 70.3261 21.6785C69.8964 20.9696 69.6816 20.1747 69.6816 19.2938C69.6816 18.413 69.8964 17.6181 70.3261 16.9091C70.7557 16.2002 71.3358 15.6416 72.0662 15.2334C72.7967 14.8252 73.6238 14.6211 74.5476 14.6211C75.4714 14.6211 76.2985 14.8252 77.029 15.2334C77.7594 15.6416 78.3395 16.2002 78.7691 16.9091C79.1988 17.6181 79.4136 18.413 79.4136 19.2938C79.4136 20.1747 79.1988 20.9696 78.7691 21.6785C78.3395 22.3875 77.7594 22.946 77.029 23.3542C76.2985 23.7624 75.4714 23.9665 74.5476 23.9665ZM74.5476 26.0934C73.2371 26.0934 72.0555 25.7926 71.0028 25.1911C69.9501 24.5895 69.1123 23.7732 68.4892 22.742C67.8662 21.7107 67.5547 20.5614 67.5547 19.2938C67.5547 18.0048 67.8662 16.8554 68.4892 15.8457C69.1123 14.8145 69.9501 13.9981 71.0028 13.3966C72.0555 12.795 73.2371 12.4943 74.5476 12.4943C75.8581 12.4943 77.0397 12.795 78.0924 13.3966C79.1451 13.9981 79.983 14.8145 80.606 15.8457C81.229 16.8554 81.5405 18.0048 81.5405 19.2938C81.5405 20.5614 81.229 21.7107 80.606 22.742C79.983 23.7732 79.1451 24.5895 78.0924 25.1911C77.0397 25.7926 75.8581 26.0934 74.5476 26.0934Z" fill="#C6C6C6"/>
<path d="M58.8635 25.7711V12.8165H66.5653V13.7832H59.8302V14.9433H66.5653V15.9101H59.8302V17.747H65.5341V18.7137H59.8302V19.8738H65.5341V20.8406H59.8302V25.7711H58.8635ZM56.7366 25.7711V12.8165H57.7033V25.7711H56.7366Z" fill="#C6C6C6"/>
<path d="M28.9345 25.3501V12.3955H36.6364V13.3623H29.9013V14.5224H36.6364V15.4891H29.9013V17.326H35.6052V18.2928H29.9013V19.4529H35.6052V20.4196H29.9013V22.2565H36.6364V23.2233H29.9013V24.3834H36.6364V25.3501H28.9345ZM26.8076 25.3501V12.3955H27.7744V25.3501H26.8076Z" fill="#C6C6C6"/>
<path d="M15.1506 25.3501V12.3955H16.1173V17.326H21.1445V12.3955H22.1113V25.3501H21.1445V20.4196H16.1173V25.3501H15.1506ZM13.0237 25.3501V12.3955H13.9904V25.3501H13.0237ZM23.2714 25.3501V12.3955H24.2381V25.3501H23.2714ZM16.1173 19.4529H21.1445V18.2928H16.1173V19.4529Z" fill="#C6C6C6"/>
<path d="M0.822021 13.3623V12.3955H11.4242V13.3623H0.822021ZM4.56017 25.3501V15.4891H0.822021V14.5224H11.4242V15.4891H7.65381V25.3501H6.68705V15.4891H5.52693V25.3501H4.56017Z" fill="#C6C6C6"/>
<path d="M38.7069 0.865356H54.3814V2.7731L49.1738 3.959V25.202C49.1738 31.733 49.0534 35.6001 48.8128 36.8032C48.5722 38.0062 48.2972 39.2093 47.9879 40.4124C47.6785 41.6499 47.2832 42.6467 46.802 43.4029C46.3551 44.1591 45.8051 45.0357 45.152 46.0325C44.1208 47.5793 42.2646 49.5386 39.5835 51.9104L38.1398 51.0339C40.0647 48.5246 41.3022 46.5825 41.8521 45.2075C42.4021 43.8326 42.7802 42.767 42.9865 42.0108C43.2271 41.2546 43.399 40.189 43.5021 38.814C43.6396 37.0266 43.7083 34.3798 43.7083 30.8737V3.959L38.7069 2.7731V0.865356Z" fill="#C6C6C6"/>
<line x1="52.2743" y1="30.702" x2="182.494" y2="31.1117" stroke="#C6C6C6" stroke-width="0.5"/>
<line x1="0.72644" y1="30.702" x2="36.4445" y2="30.702" stroke="#C6C6C6" stroke-width="0.5"/>
</svg>
